<svg width="21" height="21" viewBox="0 0 21 21" fill="none" xmlns="http://www.w3.org/2000/svg">
<path fill-rule="evenodd" clip-rule="evenodd" d="M10.2822 14.1771C10.3269 14.1772 10.4999 14.179 10.7596 14.2242L10.7244 14.8006C10.7126 15.1065 10.4538 15.3536 10.1479 15.3536C9.46553 15.3536 8.99495 15.5536 8.6773 15.9536C7.95965 16.8712 8.20671 18.6947 8.35965 19.33C8.40671 19.5065 8.35965 19.6947 8.25377 19.8359C8.13613 19.9771 7.97142 20.0594 7.79495 20.0594H5.58318C5.25377 20.0594 4.99495 19.8006 4.99495 19.4712V14.1771H10.2822ZM16.822 0.384974C16.9432 0.140266 17.2138 0.0143911 17.4832 0.0743911C17.7491 0.137922 17.9361 0.374391 17.9361 0.647329V6.00144C19.2773 6.27439 20.2891 7.46262 20.2891 8.88262C20.2891 10.3026 19.2773 11.492 17.9361 11.765V17.1179C17.9361 17.3909 17.7491 17.6285 17.4832 17.6909C17.4388 17.7011 17.3934 17.7062 17.3479 17.7062C17.1279 17.7062 16.9232 17.5838 16.822 17.3814C14.6561 13.0509 10.3326 13.0003 10.2891 13.0003H4.40671C2.78435 13.0003 1.46553 11.6814 1.46553 10.0591V9.47086H0.877302C0.552594 9.47086 0.289062 9.2085 0.289062 8.88263C0.289062 8.55792 0.552594 8.29439 0.877292 8.29439H1.46553V7.70616C1.46553 6.08497 2.78435 4.76497 4.40671 4.76497H10.2879C10.4644 4.7638 14.6679 4.69204 16.822 0.384974Z" fill="#0F172A"/>
</svg>
