<svg width="15" height="19" viewBox="0 0 15 19" fill="none" xmlns="http://www.w3.org/2000/svg">
<path fill-rule="evenodd" clip-rule="evenodd" d="M6.08417 0.980469C4.59681 0.980469 3.39106 2.18622 3.39106 3.67358V4.10712C2.61223 4.18254 1.83985 4.28023 1.07458 4.39954C0.673772 4.46202 0.399511 4.83759 0.461996 5.23839C0.524482 5.6392 0.900051 5.91346 1.30085 5.85097L1.44571 5.82867L2.26979 16.1297C2.38176 17.5294 3.55024 18.6081 4.95433 18.6081H9.6621C11.0662 18.6081 12.2347 17.5294 12.3466 16.1298L13.1707 5.82861L13.316 5.85097C13.7168 5.91346 14.0924 5.6392 14.1548 5.23839C14.2173 4.83759 13.9431 4.46202 13.5423 4.39954C12.7769 4.28022 12.0045 4.18253 11.2256 4.1071V3.67358C11.2256 2.18621 10.0198 0.980469 8.53245 0.980469H6.08417ZM7.30842 3.91841C8.13041 3.91841 8.9467 3.94312 9.75659 3.99184V3.67358C9.75659 2.9975 9.20853 2.44944 8.53245 2.44944H6.08417C5.4081 2.44944 4.86003 2.9975 4.86003 3.67358V3.99185C5.66999 3.94312 6.48635 3.91841 7.30842 3.91841ZM5.93299 7.56084C5.91644 7.14696 5.5675 6.82486 5.15362 6.84142C4.73973 6.85798 4.41764 7.20691 4.43419 7.6208L4.728 14.9656C4.74455 15.3795 5.09349 15.7016 5.50738 15.6851C5.92126 15.6685 6.24336 15.3196 6.2268 14.9057L5.93299 7.56084ZM10.1832 7.6208C10.1998 7.20691 9.87768 6.85798 9.4638 6.84142C9.04992 6.82486 8.70098 7.14696 8.68442 7.56084L8.39063 14.9057C8.37407 15.3196 8.69617 15.6685 9.11005 15.6851C9.52394 15.7016 9.87288 15.3795 9.88943 14.9656L10.1832 7.6208Z" fill="#0F172A"/>
</svg>
