<svg width="13" height="16" viewBox="0 0 13 16" fill="none" xmlns="http://www.w3.org/2000/svg">
<path fill-rule="evenodd" clip-rule="evenodd" d="M2.20119 0.937744C1.48817 0.937744 0.910156 1.51576 0.910156 2.22878V14.1063C0.910156 14.8193 1.48817 15.3973 2.20119 15.3973H10.9802C11.6932 15.3973 12.2712 14.8193 12.2712 14.1063V8.68394C12.2712 7.2579 11.1152 6.10187 9.68918 6.10187H8.39814C7.68513 6.10187 7.10711 5.52386 7.10711 4.81084V3.51981C7.10711 2.09377 5.95108 0.937744 4.52505 0.937744H2.20119ZM3.49222 10.2332C3.49222 9.94797 3.72343 9.71676 4.00863 9.71676H9.17276C9.45797 9.71676 9.68918 9.94797 9.68918 10.2332C9.68918 10.5184 9.45797 10.7496 9.17276 10.7496H4.00863C3.72343 10.7496 3.49222 10.5184 3.49222 10.2332ZM4.00863 11.7824C3.72343 11.7824 3.49222 12.0136 3.49222 12.2988C3.49222 12.584 3.72343 12.8152 4.00863 12.8152H6.5907C6.87591 12.8152 7.10711 12.584 7.10711 12.2988C7.10711 12.0136 6.87591 11.7824 6.5907 11.7824H4.00863Z" fill="#0F172A"/>
<path d="M7.25941 1.15526C7.80803 1.78912 8.13994 2.6157 8.13994 3.51981V4.81084C8.13994 4.95344 8.25554 5.06905 8.39814 5.06905H9.68918C10.5933 5.06905 11.4199 5.40096 12.0537 5.94957C11.4424 3.60924 9.59975 1.7666 7.25941 1.15526Z" fill="#0F172A"/>
</svg>
