<svg width="15" height="16" viewBox="0 0 15 16" fill="none" xmlns="http://www.w3.org/2000/svg">
<path d="M3.07795 11.7727L4.20922 8.94456C4.3896 8.49362 4.65969 8.08402 5.00311 7.7406L11.2066 1.53752C11.9493 0.794784 13.1535 0.794786 13.8963 1.53752C14.639 2.28026 14.639 3.48447 13.8963 4.22721L7.6928 10.4303C7.34938 10.7737 6.93978 11.0438 6.48884 11.2242L3.66066 12.3554C3.29472 12.5018 2.93158 12.1387 3.07795 11.7727Z" fill="#0F172A"/>
<path d="M1.34484 4.45071C1.34484 3.83176 1.8466 3.33001 2.46555 3.33001H7.1725C7.54387 3.33001 7.84492 3.02895 7.84492 2.65758C7.84492 2.28622 7.54387 1.98516 7.1725 1.98516H2.46555C1.10386 1.98516 0 3.08903 0 4.45071V12.9681C0 14.3297 1.10386 15.4336 2.46555 15.4336H10.9829C12.3446 15.4336 13.4484 14.3297 13.4484 12.9681V8.2611C13.4484 7.88973 13.1474 7.58868 12.776 7.58868C12.4047 7.58868 12.1036 7.88973 12.1036 8.2611V12.9681C12.1036 13.587 11.6018 14.0888 10.9829 14.0888H2.46555C1.8466 14.0888 1.34484 13.587 1.34484 12.9681V4.45071Z" fill="#0F172A"/>
</svg>
