<svg width="20" height="17" viewBox="0 0 20 17" fill="none" xmlns="http://www.w3.org/2000/svg">
<path d="M17.2396 5.57402C17.5894 5.57402 17.9256 5.62588 18.2416 5.72195V5.57402C18.2416 4.05691 17.0117 2.82705 15.4946 2.82705H11.9431C11.761 2.82705 11.5863 2.75469 11.4575 2.62591L9.5151 0.683505C9.12873 0.297137 8.6047 0.0800781 8.0583 0.0800781H4.50676C2.98965 0.0800781 1.75979 1.30994 1.75979 2.82705V5.72192C2.07576 5.62587 2.41195 5.57402 2.76171 5.57402H17.2396Z" fill="#0F1729"/>
<path d="M2.76179 6.9475C1.50804 6.9475 0.544958 8.05794 0.722265 9.29909L1.50711 14.793C1.65211 15.808 2.52136 16.5619 3.54664 16.5619H16.4548C17.4801 16.5619 18.3493 15.808 18.4943 14.793L19.2792 9.29909C19.4565 8.05794 18.4934 6.9475 17.2396 6.9475H2.76179Z" fill="#0F1729"/>
</svg>
