<svg width="78" height="46" viewBox="0 0 78 46" fill="none" xmlns="http://www.w3.org/2000/svg">
<mask id="mask0_1591_14719" style="mask-type:luminance" maskUnits="userSpaceOnUse" x="60" y="39" width="1" height="1">
<path d="M60.416 39.6365H60.466V39.9865H60.416V39.6365Z" fill="white"/>
</mask>
<g mask="url(#mask0_1591_14719)">
<path d="M60.4484 39.6784L60.4473 39.6772L60.4698 39.8806C60.471 39.8783 60.4732 39.8726 60.4664 39.8004C60.4585 39.7281 60.4507 39.6818 60.4484 39.6784Z" fill="#0F172A"/>
</g>
<mask id="mask1_1591_14719" style="mask-type:luminance" maskUnits="userSpaceOnUse" x="60" y="41" width="1" height="1">
<path d="M60.2461 41.7126H60.445V41.8288H60.2461V41.7126Z" fill="white"/>
</mask>
<g mask="url(#mask1_1591_14719)">
<path d="M60.3203 41.751L60.3293 41.8119L60.3339 41.7736L60.3248 41.7126L60.3203 41.751Z" fill="#0F172A"/>
</g>
<path d="M60.1524 39.0986C60.1421 39.0895 60.1421 39.1483 60.1512 39.2239C60.1558 39.2736 60.1694 39.3481 60.1819 39.3537C60.1933 39.3503 60.1887 39.2882 60.1853 39.2521C60.1751 39.1562 60.1603 39.1042 60.1524 39.0986Z" fill="#0F172A"/>
<path d="M59.8691 41.1983L59.8849 41.2739L59.8951 41.2276L59.8804 41.1487L59.8691 41.1983Z" fill="#0F172A"/>
<path d="M59.2747 40.5881C59.2554 40.5802 59.2542 40.6852 59.2747 40.7303L59.2951 40.736C59.2997 40.7258 59.3031 40.7089 59.302 40.6852C59.2986 40.6265 59.2849 40.5915 59.2747 40.5881Z" fill="#0F172A"/>
<path d="M23.5137 0.674014C23.55 0.695464 24.0183 0.780138 24.0512 0.769977C24.041 0.758687 23.9058 0.731591 23.7933 0.71127C23.6376 0.684174 23.5284 0.668369 23.5137 0.672885V0.674014Z" fill="#0F172A"/>
<path d="M20.9844 0.308713L21.3447 0.351614C21.3333 0.34484 21.2708 0.33468 21.1708 0.322261C21.1412 0.318874 20.9912 0.301939 20.9844 0.308713Z" fill="#0F172A"/>
<mask id="mask2_1591_14719" style="mask-type:luminance" maskUnits="userSpaceOnUse" x="18" y="0" width="1" height="1">
<path d="M18.3887 0H18.6796V0.389408H18.3887V0Z" fill="white"/>
</mask>
<g mask="url(#mask2_1591_14719)">
<path d="M18.4688 0.098238C18.4744 0.102733 18.6301 0.113971 18.6551 0.109476C18.6529 0.106104 18.6029 0.101609 18.5631 0.100486C18.5313 0.0971142 18.5006 0.0914955 18.4688 0.0971143V0.098238Z" fill="#0F172A"/>
</g>
<path d="M58.5164 40.0614C58.4846 40.0513 58.4857 40.1675 58.5107 40.2194C58.5209 40.2408 58.5346 40.251 58.5448 40.2262L58.5516 40.1686C58.5482 40.0975 58.5277 40.0648 58.5164 40.0614Z" fill="#0F172A"/>
<path d="M20.8984 0.493636C20.9064 0.510571 21.2405 0.565891 21.2689 0.535408C21.2678 0.524118 21.1962 0.508313 21.0905 0.495894C20.9848 0.482346 20.9075 0.481217 20.8984 0.491378V0.493636Z" fill="#0F172A"/>
<path d="M18.4289 0.277143L18.6278 0.289561C18.6244 0.282787 18.5846 0.276014 18.5289 0.272627C18.4743 0.26924 18.4323 0.271498 18.4277 0.276014L18.4289 0.277143Z" fill="#0F172A"/>
<mask id="mask3_1591_14719" style="mask-type:luminance" maskUnits="userSpaceOnUse" x="15" y="0" width="2" height="1">
<path d="M15.9551 0.100098H16.0471V0.389116H15.9551V0.100098Z" fill="white"/>
</mask>
<g mask="url(#mask3_1591_14719)">
<path d="M15.9578 0.196094L15.9674 0.195068H15.9551L15.9578 0.196094Z" fill="#0F172A"/>
</g>
<path d="M57.6139 39.5623C57.5809 39.5533 57.5752 39.6594 57.607 39.717C57.623 39.7463 57.6423 39.7452 57.6514 39.7125L57.6571 39.6684C57.6525 39.5973 57.6275 39.5657 57.6139 39.5623Z" fill="#0F172A"/>
<path d="M18.3576 0.605382C18.3667 0.626833 18.5497 0.636994 18.5531 0.615543C18.5531 0.609898 18.5293 0.598608 18.4577 0.594092C18.3906 0.589576 18.3542 0.597479 18.3576 0.605382Z" fill="#0F172A"/>
<mask id="mask4_1591_14719" style="mask-type:luminance" maskUnits="userSpaceOnUse" x="15" y="0" width="2" height="1">
<path d="M15.9551 0.378906H16.0471V0.667925H15.9551V0.378906Z" fill="white"/>
</mask>
<g mask="url(#mask4_1591_14719)">
<path d="M15.9592 0.534324H15.9674L15.9592 0.531982L15.9551 0.534324H15.9592Z" fill="#0F172A"/>
</g>
<path d="M56.5761 39.0891C56.5443 39.0835 56.5386 39.1738 56.5681 39.219C56.5841 39.2439 56.6079 39.2427 56.6147 39.2043L56.617 39.1784C56.6125 39.1219 56.5897 39.0914 56.5761 39.0891Z" fill="#0F172A"/>
<mask id="mask5_1591_14719" style="mask-type:luminance" maskUnits="userSpaceOnUse" x="0" y="40" width="78" height="6">
<path d="M77.6481 40.7529H0V45.3551H77.6481V40.7529Z" fill="white"/>
</mask>
<g mask="url(#mask5_1591_14719)">
<path d="M3.55025 43.8223H1.30323C1.12792 43.8223 1.03888 43.7476 1.03888 43.5955V42.427C1.03888 42.3039 1.17523 42.1975 1.30323 42.1975H3.55025V41.7439H1.30323C0.926176 41.7439 0.554688 42.0592 0.554688 42.427V43.5955C0.554688 43.9993 0.896958 44.2814 1.30323 44.2814H3.55025V43.8223Z" fill="#0F172A"/>
<path d="M8.67691 42.4263C8.67691 42.0474 8.30264 41.7432 7.93255 41.7432H6.32276C5.94571 41.7432 5.57422 42.0474 5.57422 42.4263V43.5948C5.57422 43.9986 5.90953 44.2806 6.32276 44.2806H7.93255C8.33464 44.2806 8.67691 43.9944 8.67691 43.5948V42.4263ZM8.19551 43.5948C8.19551 43.7469 8.10646 43.8215 7.93255 43.8215H6.32276C6.14745 43.8215 6.05841 43.7469 6.05841 43.5948V42.4263C6.05841 42.3032 6.19476 42.1967 6.32276 42.1967H7.93255C8.06055 42.1967 8.19551 42.3032 8.19551 42.4263V43.5948Z" fill="#0F172A"/>
<path d="M13.7973 41.7432H13.3159V43.5948C13.3159 43.7469 13.2268 43.8215 13.0529 43.8215H12.7218C12.5437 43.8215 12.4546 43.7469 12.4546 43.5948L12.4616 42.4263C12.4644 42.0239 12.1124 41.7432 11.7131 41.7432H11.3791C10.977 41.7432 10.6348 42.0197 10.6348 42.4263V44.2806H11.119V42.4263C11.119 42.2742 11.2038 42.1967 11.3791 42.1967H11.7131C11.8884 42.1967 11.9774 42.2742 11.9774 42.4263V43.5948C11.9774 43.9806 12.2974 44.2806 12.7218 44.2806H13.0529C13.455 44.2806 13.7973 43.9944 13.7973 43.5948V41.7432Z" fill="#0F172A"/>
<path d="M18.8967 41.7432H16.6246C16.2476 41.7432 15.8761 42.0474 15.8761 42.4263V42.5535C15.8761 42.9614 16.2114 43.2338 16.6246 43.2338L18.1412 43.2366C18.3165 43.2366 18.4056 43.3113 18.4056 43.4634V43.5948C18.4056 43.722 18.2692 43.8285 18.1412 43.8285H15.8691V44.2806H18.1412C18.5155 44.2806 18.8856 43.9833 18.8856 43.5948V43.4634C18.8856 43.0638 18.5503 42.7844 18.1412 42.7844L16.6246 42.7803C16.4493 42.7803 16.3603 42.707 16.3603 42.5535V42.4263C16.3603 42.3032 16.4966 42.1967 16.6246 42.1967H18.8967V41.7432Z" fill="#0F172A"/>
<path d="M24.0304 41.7434H23.549V43.595C23.549 43.7471 23.46 43.8218 23.2861 43.8218H21.6763C21.501 43.8218 21.4119 43.7471 21.4119 43.595V41.7434H20.9277V43.595C20.9277 43.9988 21.263 44.2809 21.6763 44.2809H23.2861C23.6882 44.2809 24.0304 43.9946 24.0304 43.595V41.7434Z" fill="#0F172A"/>
<path d="M28.7418 43.8215H26.8482C26.6728 43.8215 26.5838 43.7469 26.5838 43.5948V41.7432H26.0996V43.5948C26.0996 43.9986 26.4349 44.2806 26.8482 44.2806H28.7418V43.8215Z" fill="#0F172A"/>
<path d="M33.7322 41.7434H30.7617V42.197H32.0014V44.2809H32.4786V42.197H33.7322V41.7434Z" fill="#0F172A"/>
<path d="M36.2169 41.7434H35.7324V44.2809H36.2169V41.7434Z" fill="#0F172A"/>
<path d="M41.4067 41.7434H40.9253V43.595C40.9253 43.7471 40.8362 43.8218 40.6623 43.8218H40.3312C40.1531 43.8218 40.064 43.7471 40.064 43.595L40.071 42.4265C40.0738 42.0241 39.7217 41.7434 39.3224 41.7434H38.9885C38.5864 41.7434 38.2441 42.02 38.2441 42.4265V44.2809H38.7283V42.4265C38.7283 42.2744 38.8132 42.197 38.9885 42.197H39.3224C39.4977 42.197 39.5868 42.2744 39.5868 42.4265V43.595C39.5868 43.9808 39.9068 44.2809 40.3312 44.2809H40.6623C41.0644 44.2809 41.4067 43.9946 41.4067 43.595V41.7434Z" fill="#0F172A"/>
<path d="M46.4439 43.4747C46.4439 43.0958 46.0808 42.7874 45.6996 42.7874H44.1899V43.2452H45.6996C45.8276 43.2452 45.9667 43.3475 45.9667 43.4747V43.595C45.9667 43.7471 45.8776 43.8218 45.6996 43.8218H44.1899C44.0146 43.8218 43.9256 43.7471 43.9256 43.595V42.4265C43.9256 42.3035 44.0619 42.197 44.1899 42.197H46.405V41.7434H44.1899C43.8129 41.7434 43.4414 42.0476 43.4414 42.4265V43.595C43.4414 43.9988 43.7767 44.2809 44.1899 44.2809H45.6996C46.1086 44.2809 46.4439 43.9988 46.4439 43.595V43.4747Z" fill="#0F172A"/>
<path d="M54.6021 43.4747C54.6021 43.0958 54.239 42.7874 53.8578 42.7874H52.3482V43.2452H53.8578C53.9858 43.2452 54.1249 43.3475 54.1249 43.4747V43.595C54.1249 43.7471 54.0359 43.8218 53.8578 43.8218H52.3482C52.1728 43.8218 52.0838 43.7471 52.0838 43.595V42.4265C52.0838 42.3035 52.2201 42.197 52.3482 42.197H54.5632V41.7434H52.3482C51.9711 41.7434 51.5996 42.0476 51.5996 42.4265V43.595C51.5996 43.9988 51.9349 44.2809 52.3482 44.2809H53.8578C54.2668 44.2809 54.6021 43.9988 54.6021 43.595V43.4747Z" fill="#0F172A"/>
<path d="M59.721 43.4523C59.721 43.2892 59.657 43.1412 59.5317 43.0071C59.657 42.8757 59.721 42.7305 59.721 42.5646V42.4263C59.721 42.0225 59.3815 41.7432 58.9766 41.7432H56.6016V44.2765H57.0816V42.1967H58.9766C59.1505 42.1967 59.2395 42.2742 59.2395 42.4263V42.5646C59.2395 42.7056 59.1505 42.7761 58.9766 42.7761H57.2318V43.2435H58.9766C59.1157 43.2435 59.2395 43.321 59.2395 43.4523V44.2765H59.721V43.4523Z" fill="#0F172A"/>
<path d="M64.9211 42.4263C64.9211 42.0474 64.5468 41.7432 64.1767 41.7432H62.5669C62.1898 41.7432 61.8184 42.0474 61.8184 42.4263V43.5948C61.8184 43.9986 62.1537 44.2806 62.5669 44.2806H64.1767C64.5788 44.2806 64.9211 43.9944 64.9211 43.5948V42.4263ZM64.4397 43.5948C64.4397 43.7469 64.3506 43.8215 64.1767 43.8215H62.5669C62.3916 43.8215 62.3025 43.7469 62.3025 43.5948V42.4263C62.3025 42.3032 62.4389 42.1967 62.5669 42.1967H64.1767C64.3047 42.1967 64.4397 42.3032 64.4397 42.4263V43.5948Z" fill="#0F172A"/>
<path d="M70.089 41.7432H69.6076V43.5948C69.6076 43.7469 69.5186 43.8215 69.3447 43.8215H67.7349C67.5596 43.8215 67.4705 43.7469 67.4705 43.5948V41.7432H66.9863V43.5948C66.9863 43.9986 67.3216 44.2806 67.7349 44.2806H69.3447C69.7468 44.2806 70.089 43.9944 70.089 43.5948V41.7432Z" fill="#0F172A"/>
<path d="M75.2522 42.4265C75.2522 42.0227 74.9127 41.7434 74.5078 41.7434H72.1328V44.2767H72.6128V42.197H74.5078C74.6818 42.197 74.7708 42.2744 74.7708 42.4265V42.5648C74.7708 42.7059 74.6818 42.7764 74.5078 42.7764H72.7631V43.2438H74.5078C74.9127 43.2438 75.2522 42.9714 75.2522 42.5648V42.4265Z" fill="#0F172A"/>
</g>
<path d="M60.0949 37.0623H60.0938L60.1563 37.4314C60.1597 37.4201 60.1528 37.3705 60.1403 37.2869C60.1153 37.13 60.0983 37.0679 60.0949 37.0623Z" fill="#0F172A"/>
<path d="M59.5905 34.5078C59.5803 34.5259 59.6883 34.9797 59.7076 35.026C59.7087 35.0238 59.7133 35.0181 59.6712 34.8251C59.628 34.6343 59.5962 34.5191 59.5905 34.5078Z" fill="#0F172A"/>
<path d="M58.9357 31.98C58.93 32.0003 59.1016 32.5817 59.1255 32.6393C59.1266 32.6359 59.1289 32.6303 59.0573 32.3808C58.988 32.1392 58.9425 31.9935 58.9357 31.98Z" fill="#0F172A"/>
<path d="M58.125 29.5005C58.1295 29.5253 58.3739 30.2163 58.4034 30.292C58.3978 30.2683 58.3909 30.248 58.383 30.2254L58.1557 29.5807C58.1455 29.5536 58.1375 29.5265 58.125 29.5005Z" fill="#0F172A"/>
<path d="M57.2052 27.1566C57.253 27.2662 57.4325 27.6964 57.5291 27.9323L57.1973 27.1375L57.2052 27.1566Z" fill="#0F172A"/>
<path d="M59.797 36.5023L59.7936 36.5012C59.7652 36.5136 59.8368 36.9098 59.8709 36.9256C59.8777 36.9211 59.8846 36.8962 59.863 36.754C59.8368 36.596 59.8084 36.5102 59.797 36.5023Z" fill="#0F172A"/>
<path d="M59.3023 33.9425L59.2989 33.9414C59.2637 33.964 59.3944 34.5025 59.4399 34.5251C59.4501 34.5206 59.4524 34.4754 59.4126 34.2936C59.3614 34.0701 59.3171 33.9538 59.3023 33.9425Z" fill="#0F172A"/>
<path d="M58.6505 31.4411L58.6459 31.4399C58.6141 31.4659 58.8187 32.142 58.8664 32.1635C58.871 32.1556 58.8823 32.133 58.8096 31.8723C58.73 31.5991 58.6687 31.4535 58.6505 31.4411Z" fill="#0F172A"/>
<path d="M57.8353 28.9769L57.8319 28.9746C57.8035 29.0593 58.116 29.8292 58.1513 29.8473C58.1547 29.836 58.1638 29.8078 58.0547 29.4917C57.9365 29.1598 57.8558 28.9915 57.8353 28.9769Z" fill="#0F172A"/>
<path d="M56.8867 26.5823L56.8833 26.5801C56.8674 26.6794 57.2754 27.5554 57.3117 27.5723C57.3129 27.5599 57.3186 27.5283 57.1697 27.1716C57.0117 26.7934 56.9071 26.597 56.8867 26.5823Z" fill="#0F172A"/>
<path d="M55.7889 24.2571L55.7832 24.2593C55.8003 24.3689 56.2435 25.2518 56.3276 25.3455L56.3321 25.3444C56.3253 25.3037 56.2605 25.1558 56.1378 24.9029C55.9116 24.4411 55.8048 24.2695 55.7889 24.2571Z" fill="#0F172A"/>
<path d="M54.5606 21.9836C54.5549 22.0615 55.1819 23.1092 55.2297 23.1634C55.2319 23.151 55.2331 23.1284 54.9809 22.6802C54.7242 22.2241 54.5799 21.9994 54.5606 21.9836Z" fill="#0F172A"/>
<path d="M53.1992 19.8203C53.2174 19.9061 53.9546 21.0091 54.0046 21.0656C54.0012 21.0532 53.9966 21.0283 53.6922 20.5553C53.3798 20.0698 53.2151 19.8339 53.1992 19.8203Z" fill="#0F172A"/>
<path d="M51.6992 17.7122C51.7401 17.7934 52.5682 18.9178 52.6511 19.016C52.6318 18.9765 52.6046 18.9438 52.5796 18.9099L52.1207 18.2721L51.789 17.8262C51.7594 17.7878 51.7356 17.7438 51.6992 17.7122Z" fill="#0F172A"/>
<path d="M50.0918 15.71C50.2656 15.9256 51.1051 16.9449 51.1732 17.0251L50.0929 15.71H50.0918Z" fill="#0F172A"/>
<path d="M48.4401 13.8674C48.598 14.0334 49.2954 14.7886 49.5192 15.0404L48.4355 13.864L48.4401 13.8674Z" fill="#0F172A"/>
<path d="M46.8792 12.3184C47.0859 12.5148 47.3404 12.7609 47.5437 12.963L46.8633 12.3037L46.8792 12.3184Z" fill="#0F172A"/>
<path d="M59.6976 38.5483C59.6669 38.5348 59.6782 38.7143 59.7123 38.8103C59.7237 38.8441 59.7351 38.8554 59.7408 38.8407C59.7453 38.8306 59.7533 38.8046 59.7453 38.7278C59.7328 38.6149 59.7089 38.554 59.6976 38.5483Z" fill="#0F172A"/>
<path d="M59.3555 35.9755C59.3146 35.9574 59.3418 36.2205 59.4009 36.3774C59.4237 36.4395 59.4453 36.4621 59.4555 36.4372C59.46 36.4192 59.4646 36.374 59.4475 36.2566C59.418 36.0782 59.3771 35.9857 59.3555 35.9755Z" fill="#0F172A"/>
<path d="M58.8577 33.4566C58.8043 33.434 58.8668 33.7841 58.9509 33.9828C58.9805 34.0562 59.0055 34.0867 59.018 34.0652C59.0236 34.0539 59.0361 34.0065 58.9952 33.8213C58.9407 33.5876 58.8827 33.4668 58.8577 33.4566Z" fill="#0F172A"/>
<path d="M58.1969 30.9636C58.1366 30.941 58.2276 31.3339 58.3435 31.5914C58.3912 31.6998 58.4287 31.7483 58.4412 31.7178C58.4492 31.702 58.456 31.6422 58.3912 31.4118C58.306 31.1205 58.2264 30.9737 58.1969 30.9636Z" fill="#0F172A"/>
<path d="M57.3945 28.5335C57.3263 28.5109 57.4684 28.9794 57.6207 29.2831C57.6843 29.4106 57.7321 29.4659 57.7423 29.4298C57.7491 29.4118 57.7502 29.3384 57.6559 29.0618C57.532 28.7164 57.4286 28.5448 57.3945 28.5335Z" fill="#0F172A"/>
<path d="M56.4403 26.1479H56.4323C56.3584 26.2157 56.788 27.1763 56.8983 27.1865C56.9256 27.1639 56.8824 27.0092 56.7767 26.753C56.6062 26.3545 56.4778 26.1592 56.4403 26.1479Z" fill="#0F172A"/>
<path d="M55.3636 23.8384H55.3556C55.2863 23.9185 55.8373 24.9809 55.9486 24.9854C55.9736 24.9583 55.9122 24.7856 55.7736 24.5C55.5544 24.0597 55.4022 23.8474 55.3636 23.8384Z" fill="#0F172A"/>
<path d="M54.1381 21.5913L54.1324 21.5924C54.0745 21.6861 54.7549 22.84 54.8662 22.8388C54.8889 22.8072 54.8037 22.6187 54.6299 22.306C54.3573 21.8273 54.1778 21.6003 54.1381 21.5913Z" fill="#0F172A"/>
<path d="M52.778 19.428H52.7712C52.728 19.5352 53.5493 20.7659 53.6595 20.7592C53.6765 20.723 53.5675 20.5209 53.3573 20.1878C53.0234 19.6741 52.8166 19.4336 52.778 19.428Z" fill="#0F172A"/>
<path d="M51.2963 17.3552L51.2895 17.3564C51.2667 17.4726 52.2266 18.7484 52.3266 18.7371C52.3368 18.6976 52.2039 18.4853 51.9551 18.1387C51.5621 17.6047 51.3338 17.3597 51.2963 17.3552Z" fill="#0F172A"/>
<path d="M49.6932 15.3706L49.6875 15.3819C49.7579 15.575 50.7201 16.7175 50.87 16.7863L50.8768 16.7762C50.8507 16.7039 50.6996 16.4996 50.4304 16.1665C49.9772 15.619 49.7261 15.3717 49.6932 15.3706Z" fill="#0F172A"/>
<path d="M47.9808 13.4763C47.9559 13.5858 49.1804 14.8289 49.286 14.8752L49.2906 14.8662C49.2542 14.7939 49.0838 14.5907 48.7828 14.2621C48.3727 13.8207 48.0501 13.5045 47.9808 13.4763Z" fill="#0F172A"/>
<path d="M46.1875 11.7239C46.1898 11.8322 47.4734 13.0063 47.5733 13.048C47.5756 13.0164 47.3905 12.82 47.0201 12.4622C46.5851 12.0445 46.25 11.7465 46.1875 11.7239Z" fill="#0F172A"/>
<path d="M44.3027 10.0874C44.3345 10.1947 45.6397 11.2672 45.7261 11.3022C45.7238 11.2909 45.7158 11.257 45.1422 10.7625C44.6935 10.3787 44.3561 10.1077 44.3027 10.0874Z" fill="#0F172A"/>
<path d="M42.3359 8.56226C42.395 8.66159 43.6729 9.60188 43.7456 9.6301C43.7411 9.61994 43.7229 9.5872 43.1549 9.15375C42.7097 8.81623 42.3814 8.57919 42.3359 8.56226Z" fill="#0F172A"/>
<path d="M40.293 7.14844C40.3577 7.22069 41.5118 7.98727 41.6538 8.06291C41.6379 8.04485 41.6209 8.02453 41.162 7.71406L40.8303 7.49165C40.6451 7.36859 40.3293 7.16198 40.293 7.14844Z" fill="#0F172A"/>
<path d="M38.1445 5.85156C38.2263 5.91479 39.3248 6.55841 39.4474 6.62051C39.4429 6.61373 39.4406 6.61035 39.2827 6.5155L38.3251 5.95093C38.2649 5.91592 38.2104 5.87415 38.1445 5.85156Z" fill="#0F172A"/>
<path d="M35.9199 4.66553C36.0108 4.71859 37.0172 5.23453 37.1297 5.2876L37.0979 5.26953L36.4118 4.91164L35.9585 4.68472L35.9233 4.66779L35.9199 4.66553Z" fill="#0F172A"/>
<path d="M33.6055 3.5957C33.9746 3.75718 34.3416 3.91753 34.7096 4.08239L33.6077 3.59683L33.6055 3.5957Z" fill="#0F172A"/>
<path d="M31.263 2.68103C31.4765 2.7578 32.0638 2.97795 32.1604 3.01634L31.2539 2.67651L31.263 2.68103Z" fill="#0F172A"/>
<path d="M29.0204 1.94277C29.1363 1.97773 29.2511 2.0127 29.3659 2.04879L28.9863 1.93262L29.0204 1.94277Z" fill="#0F172A"/>
<path d="M59.0772 38.0217C59.034 38.007 59.0465 38.2305 59.0953 38.3243C59.1135 38.3581 59.1317 38.3626 59.1397 38.3344C59.151 38.3017 59.1454 38.243 59.1442 38.2204C59.1317 38.0951 59.0965 38.0285 59.0772 38.0217Z" fill="#0F172A"/>
<path d="M58.7511 35.4893C58.6863 35.4701 58.7261 35.801 58.8057 35.9433C58.8318 35.9885 58.8534 35.9964 58.8648 35.9625C58.8773 35.9297 58.8773 35.8688 58.8625 35.7795C58.8318 35.5955 58.7773 35.4972 58.7511 35.4893Z" fill="#0F172A"/>
<path d="M58.2539 33.0009C58.1721 32.9806 58.2539 33.4198 58.3642 33.596C58.4017 33.6536 58.4301 33.6626 58.4426 33.6197C58.4539 33.5768 58.4471 33.4966 58.4233 33.3803C58.3653 33.1342 58.2892 33.01 58.2539 33.0009Z" fill="#0F172A"/>
<path d="M57.6108 30.5532C57.5107 30.534 57.6449 31.068 57.7937 31.287C57.8426 31.3592 57.8778 31.3682 57.8881 31.3118C57.8972 31.2565 57.8813 31.1571 57.8426 31.0138C57.7528 30.7113 57.6528 30.5623 57.6108 30.5532Z" fill="#0F172A"/>
<path d="M56.8184 28.1408C56.7048 28.1227 56.9037 28.7538 57.0923 29.0056C57.148 29.0789 57.1867 29.0947 57.198 29.0462C57.206 29.0135 57.206 28.922 57.1207 28.6736C56.9923 28.318 56.8662 28.1475 56.8184 28.1408Z" fill="#0F172A"/>
<path d="M55.8778 25.7999C55.7505 25.7886 56.0278 26.5078 56.2574 26.7878C56.3233 26.8691 56.3676 26.8838 56.3756 26.8284C56.3813 26.7912 56.3744 26.6851 56.2608 26.4039C56.0846 25.9975 55.9301 25.8067 55.8778 25.7999Z" fill="#0F172A"/>
<path d="M54.8108 23.512C54.6745 23.5041 55.038 24.3035 55.3107 24.6072C55.389 24.6953 55.4379 24.71 55.4402 24.6468C55.4436 24.6027 55.4254 24.483 55.2754 24.1714C55.0505 23.7209 54.8676 23.5143 54.8108 23.512Z" fill="#0F172A"/>
<path d="M53.5924 21.2971C53.4448 21.2994 53.9605 22.2522 54.257 22.5266C54.3013 22.5672 54.374 22.6214 54.3694 22.5356C54.3683 22.4859 54.3353 22.3527 54.1456 22.0095C53.8639 21.5184 53.6515 21.2971 53.5924 21.2971Z" fill="#0F172A"/>
<path d="M52.2414 19.1558C52.0846 19.1682 52.7151 20.1822 53.0627 20.4802C53.1127 20.522 53.1933 20.5785 53.1797 20.4825C53.1717 20.4283 53.124 20.2815 52.8911 19.9146C52.5447 19.3839 52.3016 19.1513 52.2414 19.1558Z" fill="#0F172A"/>
<path d="M50.7689 17.0964C50.6133 17.119 51.3653 18.1859 51.7527 18.4885C51.8333 18.5517 51.8776 18.5607 51.8742 18.5099C51.8731 18.4704 51.8333 18.3293 51.5141 17.8833C51.1018 17.3267 50.8314 17.0874 50.7689 17.0964Z" fill="#0F172A"/>
<path d="M49.1821 15.1308C49.0208 15.1658 49.983 16.3546 50.3658 16.5929C50.4328 16.6346 50.4623 16.6312 50.4544 16.585C50.4487 16.5409 50.3908 16.3919 50.017 15.9313C49.5388 15.3566 49.2412 15.1184 49.1821 15.1308Z" fill="#0F172A"/>
<path d="M47.4786 13.2722C47.3241 13.3208 48.5146 14.609 48.8451 14.7536C48.8815 14.7694 48.8917 14.7626 48.9008 14.7581C48.9178 14.6892 48.7384 14.4453 48.3919 14.0659C47.8546 13.489 47.5331 13.2541 47.4786 13.2722Z" fill="#0F172A"/>
<path d="M45.7033 11.5467C45.5692 11.6043 46.8358 12.8257 47.1607 12.9522C47.1947 12.9657 47.2038 12.9589 47.2118 12.9533C47.2175 12.8844 47.0175 12.6474 46.6495 12.2884C46.0781 11.742 45.7521 11.5264 45.7033 11.5467Z" fill="#0F172A"/>
<path d="M43.8508 9.93113C43.8076 9.98871 44.2211 10.3692 44.5096 10.6119C44.922 10.9596 45.3173 11.2317 45.3707 11.2091L45.3775 11.2012C45.3718 11.1346 45.1628 10.9179 44.7868 10.5927C44.312 10.1885 43.936 9.9221 43.8508 9.93113Z" fill="#0F172A"/>
<path d="M41.9336 8.44253C41.9325 8.6277 43.3103 9.56486 43.4183 9.55244C43.4228 9.49824 43.2263 9.31533 42.8287 9.01047C42.3709 8.66496 42.0029 8.43124 41.9336 8.44253Z" fill="#0F172A"/>
<path d="M39.9062 7.06108C39.9381 7.23042 41.2478 8.02184 41.3353 8.0049C41.3296 7.95523 41.1331 7.79717 40.7514 7.53751C40.3095 7.24171 39.9619 7.0464 39.9062 7.06108Z" fill="#0F172A"/>
<path d="M37.8086 5.77636C37.8643 5.92879 39.0808 6.5758 39.1501 6.55661C39.1365 6.51031 38.9457 6.37707 38.5856 6.16253C38.1641 5.91524 37.8529 5.76168 37.8086 5.77636Z" fill="#0F172A"/>
<path d="M35.6211 4.6152C35.6836 4.72471 36.74 5.24066 36.8684 5.25082L36.874 5.24292C36.8388 5.19889 36.6468 5.08599 36.3356 4.92341C35.9641 4.73488 35.6927 4.61633 35.6256 4.61182L35.6211 4.6152Z" fill="#0F172A"/>
<path d="M33.3398 3.57574C33.4148 3.6706 34.3735 4.07145 34.4769 4.07484L34.4792 4.06693C34.4428 4.0308 34.2645 3.94047 33.9782 3.81287C33.6409 3.66495 33.3989 3.57349 33.3433 3.57349L33.3398 3.57574Z" fill="#0F172A"/>
<path d="M30.9844 2.647C31.0605 2.72039 31.917 3.02408 31.9954 3.02183V3.01392C31.9579 2.98457 31.7954 2.9157 31.5398 2.81974C31.2422 2.7091 31.0298 2.64249 30.9855 2.64588L30.9844 2.647Z" fill="#0F172A"/>
<path d="M28.5527 1.85812C28.5936 1.90104 29.3422 2.12804 29.4149 2.12013C29.4092 2.09868 29.1661 2.02075 29.0219 1.97671C28.7663 1.89878 28.5868 1.85247 28.555 1.85699L28.5527 1.85812Z" fill="#0F172A"/>
<path d="M26.0371 1.19027C26.078 1.22301 26.6982 1.3709 26.7516 1.36187C26.7403 1.34494 26.5381 1.293 26.4165 1.26365C26.2098 1.21398 26.061 1.18462 26.0371 1.18801V1.19027Z" fill="#0F172A"/>
<path d="M58.3359 37.549C58.2825 37.5354 58.2882 37.7363 58.3439 37.8379C58.3689 37.883 58.395 37.8864 58.4064 37.8469C58.4178 37.8119 58.4132 37.7645 58.4121 37.742C58.3973 37.619 58.3587 37.5546 58.3359 37.549Z" fill="#0F172A"/>
<path d="M58.0008 35.0573C57.9179 35.0393 57.9554 35.3746 58.052 35.5157C58.0895 35.571 58.1224 35.5688 58.1361 35.5101C58.1475 35.4547 58.1361 35.3791 58.1315 35.3475C58.0997 35.1612 58.0349 35.063 58.0008 35.0573Z" fill="#0F172A"/>
<path d="M57.517 32.6039C57.4136 32.5881 57.4897 33.0306 57.6204 33.2033C57.6738 33.2722 57.7147 33.2677 57.7272 33.1898C57.7375 33.1187 57.717 33.0216 57.709 32.9798C57.65 32.7326 57.5602 32.6107 57.517 32.6039Z" fill="#0F172A"/>
<path d="M56.8806 30.1873C56.7511 30.1737 56.8806 30.7201 57.0591 30.9357C57.1295 31.0203 57.1795 31.0113 57.1852 30.9131C57.192 30.8205 57.1591 30.6986 57.1443 30.6467C57.0534 30.3396 56.9352 30.1929 56.8806 30.1873Z" fill="#0F172A"/>
<path d="M56.0993 27.8331C55.9504 27.8252 56.1437 28.4619 56.3641 28.7069C56.4278 28.7746 56.496 28.8074 56.5062 28.6979C56.5164 28.5872 56.4573 28.4145 56.438 28.3569C56.3085 28.0013 56.1607 27.8365 56.0993 27.8331Z" fill="#0F172A"/>
<path d="M55.1696 25.5276C55.0048 25.5287 55.2741 26.2535 55.5399 26.5233C55.6353 26.6193 55.6955 26.6125 55.6966 26.5042C55.6966 26.3777 55.6171 26.1801 55.591 26.1169C55.4149 25.7094 55.2377 25.5276 55.1696 25.5276Z" fill="#0F172A"/>
<path d="M54.1086 23.2718C53.9246 23.2842 54.3312 24.1715 54.6322 24.4153C54.7288 24.4921 54.7822 24.4707 54.7731 24.3589C54.7629 24.2133 54.6584 23.9931 54.6232 23.9198C54.3937 23.4648 54.1847 23.2673 54.1086 23.2718Z" fill="#0F172A"/>
<path d="M52.9144 21.1012C52.7179 21.1272 53.2347 22.0959 53.5789 22.3488C53.6902 22.4312 53.7425 22.4052 53.722 22.2788C53.697 22.1151 53.5641 21.8746 53.5221 21.7944C53.2347 21.2999 52.9939 21.091 52.9144 21.1012Z" fill="#0F172A"/>
<path d="M51.5974 18.997C51.3952 19.0377 52.0302 20.0751 52.4164 20.3347C52.5402 20.4183 52.5936 20.3878 52.5607 20.2478C52.5186 20.0706 52.3573 19.8132 52.304 19.7297C51.9541 19.1957 51.6792 18.9801 51.5974 18.997Z" fill="#0F172A"/>
<path d="M50.1323 16.9646C49.9255 17.0222 50.6946 18.1275 51.1251 18.3895C51.2478 18.464 51.3046 18.4403 51.2784 18.3251C51.25 18.2009 51.1387 17.9988 50.9445 17.7267C50.5242 17.1622 50.2175 16.9409 50.1323 16.9646Z" fill="#0F172A"/>
<path d="M48.5708 15.0262C48.3425 15.1097 49.3319 16.338 49.7863 16.539C49.9033 16.5898 49.9385 16.539 49.8806 16.3968C49.7965 16.1913 49.5636 15.9023 49.4875 15.8074C48.9934 15.2181 48.6549 14.9957 48.5708 15.0262Z" fill="#0F172A"/>
<path d="M46.8911 13.1818C46.6719 13.2834 47.8055 14.5364 48.2872 14.7227C48.3655 14.7532 48.4473 14.7588 48.3871 14.6121C48.3292 14.4698 48.1679 14.2508 47.9055 13.9618C47.3409 13.3612 46.9729 13.1434 46.8911 13.1818Z" fill="#0F172A"/>
<path d="M45.1301 11.4839C44.9279 11.6013 46.2649 12.8917 46.6704 12.9685C46.7715 12.9866 46.7669 12.9064 46.659 12.7472C46.5204 12.5429 46.2842 12.3114 46.1842 12.2143C45.5788 11.6397 45.2039 11.441 45.1301 11.4839Z" fill="#0F172A"/>
<path d="M43.331 9.91538C43.1629 10.0373 44.4908 11.1776 44.8589 11.2284C44.952 11.2408 44.9407 11.1652 44.8259 11.0207C44.6817 10.8378 44.4454 10.6312 44.3443 10.5442C43.7457 10.0396 43.3912 9.87248 43.331 9.91538Z" fill="#0F172A"/>
<path d="M41.4415 8.4631C41.3064 8.58389 42.5956 9.566 42.9251 9.5931C42.9762 9.59761 43.0148 9.57503 42.9058 9.44409C42.766 9.27588 42.49 9.06253 42.3991 8.99254C41.8175 8.55567 41.4881 8.42021 41.4415 8.4631Z" fill="#0F172A"/>
<path d="M39.4673 7.11275C39.3617 7.23014 40.5942 8.05982 40.8861 8.06772C40.9316 8.06885 40.9611 8.04627 40.8509 7.93226C40.7101 7.78665 40.4454 7.60491 40.3579 7.54508C39.8047 7.17822 39.5026 7.07098 39.4673 7.11275Z" fill="#0F172A"/>
<path d="M37.4038 5.86042C37.3265 5.96993 38.5965 6.70828 38.7601 6.64957C38.8214 6.62812 38.6783 6.48023 38.2216 6.20588C37.7014 5.90332 37.4299 5.82203 37.4038 5.86042Z" fill="#0F172A"/>
<path d="M35.2615 4.71891C35.2092 4.82276 36.3826 5.41539 36.5155 5.35444C36.5644 5.33186 36.4235 5.20656 36.001 4.98644C35.5205 4.74374 35.2796 4.68392 35.2615 4.71891Z" fill="#0F172A"/>
<path d="M33.0183 3.68999C32.9865 3.78592 34.0588 4.25094 34.1667 4.18773C34.2031 4.16629 34.0667 4.06358 33.6794 3.88976C33.2409 3.70014 33.0296 3.65838 33.0183 3.68999Z" fill="#0F172A"/>
<path d="M30.707 2.79307C30.7309 2.89355 31.6805 3.23451 31.7351 3.16112C31.7271 3.12274 31.559 3.03806 31.2818 2.93307C30.9649 2.81678 30.7286 2.75921 30.707 2.79307Z" fill="#0F172A"/>
<path d="M28.3125 2.00928C28.3114 2.07361 29.1383 2.32192 29.1883 2.27226L29.1906 2.26775C29.1792 2.23501 29.0315 2.17294 28.7975 2.09957C28.4829 2.00589 28.3125 1.98219 28.3125 2.00928Z" fill="#0F172A"/>
<path d="M25.8555 1.35843C25.8635 1.41149 26.5473 1.57406 26.5803 1.53003C26.5916 1.51536 26.4928 1.4702 26.2463 1.40923C25.9975 1.3494 25.8521 1.33698 25.8555 1.35843Z" fill="#0F172A"/>
<path d="M23.3828 0.848849C23.3908 0.874816 23.8772 0.984327 23.9272 0.943683C23.9295 0.927878 23.8306 0.898524 23.6692 0.868042C23.5124 0.840946 23.3999 0.831915 23.3828 0.846591V0.848849Z" fill="#0F172A"/>
<path d="M57.4418 37.108C57.3816 37.0956 57.385 37.2943 57.4464 37.3902C57.4793 37.4422 57.5146 37.4365 57.5248 37.3801C57.5316 37.3485 57.5282 37.3168 57.5271 37.2954C57.5123 37.1678 57.4668 37.1125 57.4418 37.108Z" fill="#0F172A"/>
<path d="M57.1167 34.6691C57.0189 34.6556 57.0519 34.9841 57.161 35.1196C57.2121 35.1817 57.2565 35.1647 57.2678 35.0789C57.2735 35.0304 57.2678 34.9818 57.2621 34.9502C57.2292 34.7662 57.1576 34.6759 57.1167 34.6691Z" fill="#0F172A"/>
<path d="M56.6432 32.2612C56.5204 32.2499 56.5898 32.6834 56.7398 32.8482C56.8102 32.9272 56.8637 32.9023 56.8716 32.7917C56.8762 32.7274 56.8637 32.6619 56.8546 32.6235C56.7966 32.3809 56.6954 32.2657 56.6432 32.2612Z" fill="#0F172A"/>
<path d="M56.0144 29.8926C55.861 29.8881 55.9837 30.4244 56.1815 30.6276C56.2746 30.7224 56.3383 30.6885 56.3372 30.5452C56.3372 30.4627 56.3156 30.3826 56.3031 30.334C56.2121 30.0337 56.0803 29.8949 56.0144 29.8926Z" fill="#0F172A"/>
<path d="M55.2484 27.5928C55.0711 27.5962 55.2541 28.2216 55.5008 28.4508C55.6064 28.5479 55.6758 28.5185 55.6746 28.3752C55.6746 28.2702 55.6326 28.1471 55.6155 28.094C55.4871 27.7463 55.3235 27.5917 55.2484 27.5928Z" fill="#0F172A"/>
<path d="M54.3372 25.3361C54.1395 25.3519 54.3962 26.0655 54.6893 26.3151C54.8154 26.4201 54.8927 26.3817 54.879 26.2168C54.8688 26.0949 54.8131 25.9549 54.7893 25.8962C54.6155 25.4976 54.4201 25.3294 54.3372 25.3361Z" fill="#0F172A"/>
<path d="M53.2995 23.1347C53.0837 23.1652 53.4279 23.9667 53.7721 24.2332C53.9209 24.3483 54.0015 24.2986 53.972 24.1101C53.9504 23.9713 53.8766 23.8143 53.8459 23.7477C53.6199 23.3018 53.3904 23.1212 53.2995 23.1347Z" fill="#0F172A"/>
<path d="M52.1314 21.0046C51.8952 21.0542 52.3938 22.006 52.7732 22.2307C52.9186 22.3165 52.9857 22.2488 52.9414 22.0557C52.9062 21.9022 52.8119 21.7305 52.7721 21.6571C52.4904 21.1717 52.228 20.9831 52.1314 21.0046Z" fill="#0F172A"/>
<path d="M50.8281 18.936C50.5805 19.0071 51.1996 20.0367 51.6267 20.2625C51.7914 20.3494 51.8561 20.2704 51.7914 20.0593C51.7403 19.8899 51.6256 19.7048 51.5767 19.6258C51.228 19.1019 50.9292 18.9066 50.8281 18.936Z" fill="#0F172A"/>
<path d="M49.4047 16.9585C49.1514 17.0522 49.8966 18.1394 50.3668 18.3596C50.5463 18.4443 50.6076 18.3551 50.5213 18.1293C50.4509 17.9475 50.3123 17.7511 50.2544 17.6664C49.8398 17.1155 49.5081 16.9213 49.4047 16.9585Z" fill="#0F172A"/>
<path d="M47.8695 15.0524C47.6037 15.1743 48.4772 16.2986 49.0088 16.5199C49.1894 16.5944 49.2531 16.5154 49.1724 16.3144C49.0918 16.1056 48.9043 15.8719 48.8248 15.7715C48.3398 15.1957 47.974 15.0049 47.8695 15.0524Z" fill="#0F172A"/>
<path d="M46.2083 13.2493C45.9357 13.4028 47.05 14.6413 47.5794 14.7723C47.7691 14.8197 47.7816 14.6797 47.6123 14.4076C47.4999 14.2247 47.3533 14.0633 47.267 13.9662C46.7081 13.3757 46.3117 13.1917 46.2083 13.2493Z" fill="#0F172A"/>
<path d="M44.4925 11.5896C44.2438 11.7589 45.4433 12.9444 45.967 13.0472C46.1351 13.0799 46.1487 12.9614 46.0045 12.7378C45.875 12.5391 45.6716 12.3393 45.5853 12.2535C44.9855 11.6889 44.5845 11.5252 44.4925 11.5896Z" fill="#0F172A"/>
<path d="M42.7397 10.0573C42.5284 10.23 43.7222 11.2789 44.2073 11.3466C44.3618 11.3692 44.364 11.2574 44.2118 11.0565C44.0755 10.8758 43.8722 10.6974 43.7859 10.6218C43.194 10.1262 42.8169 9.99296 42.7397 10.0573Z" fill="#0F172A"/>
<path d="M40.8892 8.63746C40.7165 8.81246 41.9774 9.77322 42.3432 9.74386C42.4977 9.73145 42.3568 9.50565 42.0126 9.21776C41.9706 9.18389 41.9127 9.1376 41.8695 9.1026C41.2981 8.67811 40.9528 8.57537 40.8892 8.63746Z" fill="#0F172A"/>
<path d="M38.9681 7.31011C38.8295 7.47834 40.0358 8.29128 40.3585 8.24612C40.4936 8.22579 40.3448 8.02708 40.0143 7.78207C39.9734 7.75158 39.9177 7.71319 39.8768 7.68384C39.3327 7.32705 39.018 7.25027 38.9681 7.31011Z" fill="#0F172A"/>
<path d="M36.9424 6.08954C36.8368 6.24874 37.9784 6.9228 38.2556 6.86522C38.3714 6.84038 38.2204 6.66763 37.9046 6.46326C37.8648 6.4373 37.8126 6.40455 37.7728 6.38197C37.2616 6.08615 36.9799 6.03308 36.9424 6.08954Z" fill="#0F172A"/>
<path d="M34.8435 4.96393C34.7697 5.1107 35.825 5.65374 36.0579 5.58825C36.1544 5.56003 36.0056 5.41326 35.7125 5.24843C35.6762 5.22698 35.6273 5.20101 35.591 5.18182C35.1196 4.94587 34.8697 4.91087 34.8435 4.96393Z" fill="#0F172A"/>
<path d="M32.6578 3.95976C32.6123 4.08621 33.5881 4.51635 33.7687 4.45087C33.8551 4.42039 33.6847 4.28491 33.3802 4.14266L33.3223 4.11669C32.8918 3.93154 32.6737 3.91347 32.6578 3.95976Z" fill="#0F172A"/>
<path d="M30.3912 3.078C30.3651 3.18864 31.2375 3.51266 31.3829 3.4483C31.4465 3.41782 31.3204 3.31508 30.9671 3.17961C30.5854 3.04187 30.4003 3.03736 30.3912 3.078Z" fill="#0F172A"/>
<path d="M28.0587 2.30607C28.0496 2.40772 28.8516 2.64491 28.9174 2.56133C28.9367 2.53648 28.8527 2.46306 28.5426 2.36593C28.2143 2.26767 28.0609 2.27219 28.0587 2.30607Z" fill="#0F172A"/>
<path d="M25.6367 1.67405C25.639 1.75754 26.3035 1.9121 26.3467 1.8399C26.3569 1.82184 26.3047 1.76882 26.0252 1.69887C25.7708 1.64021 25.6356 1.64134 25.6367 1.67405Z" fill="#0F172A"/>
<path d="M23.2228 1.17781C23.2341 1.23994 23.7308 1.32466 23.7558 1.26931C23.7626 1.2535 23.7024 1.21509 23.5069 1.17894C23.3057 1.14392 23.2193 1.15634 23.2228 1.17781Z" fill="#0F172A"/>
<path d="M20.7854 0.827014C20.7979 0.869915 21.1355 0.907172 21.1469 0.867658C21.1491 0.856368 21.1071 0.833788 20.9741 0.815725C20.8298 0.799919 20.7809 0.814595 20.7854 0.827014Z" fill="#0F172A"/>
<path d="M56.4041 36.6846C56.3359 36.6756 56.337 36.8699 56.4052 36.9613C56.445 37.0144 56.4871 37.0054 56.4996 36.9376C56.5041 36.9105 56.503 36.8834 56.5018 36.8676C56.4871 36.7501 56.4359 36.6891 56.4041 36.6846Z" fill="#0F172A"/>
<path d="M56.0802 34.3118C55.9779 34.3016 55.9984 34.5873 56.1086 34.724C56.1711 34.8019 56.2302 34.7816 56.2416 34.6799C56.2461 34.6381 56.2405 34.5986 56.2382 34.5738C56.2064 34.3999 56.1268 34.3163 56.0802 34.3118Z" fill="#0F172A"/>
<path d="M55.6218 31.9666C55.4889 31.961 55.5389 32.3437 55.6912 32.5119C55.7787 32.6079 55.8537 32.5785 55.8616 32.4453C55.8628 32.3911 55.8525 32.338 55.8457 32.3076C55.79 32.0761 55.6809 31.9689 55.6218 31.9666Z" fill="#0F172A"/>
<path d="M55.0126 29.6702C54.8478 29.6736 54.9399 30.1488 55.1444 30.3576C55.2535 30.4683 55.341 30.4389 55.3467 30.2888C55.3501 30.2098 55.3297 30.1319 55.3172 30.0856C55.2285 29.7966 55.0853 29.6702 55.0126 29.6702Z" fill="#0F172A"/>
<path d="M54.2687 27.4233C54.0698 27.438 54.2392 28.0352 54.4994 28.243C54.6313 28.3468 54.7165 28.2825 54.6983 28.0928C54.6904 28.0115 54.6654 27.9348 54.6506 27.8896C54.5267 27.5565 54.3528 27.4166 54.2687 27.4233Z" fill="#0F172A"/>
<path d="M53.3812 25.221C53.1563 25.2515 53.396 25.9413 53.7118 26.1671C53.8685 26.28 53.9617 26.1999 53.9264 25.9808C53.9128 25.886 53.8776 25.7968 53.8572 25.7449C53.6879 25.361 53.4766 25.2075 53.3812 25.221Z" fill="#0F172A"/>
<path d="M52.3726 23.0818C52.1249 23.1314 52.4453 23.9002 52.8122 24.1372C52.9951 24.2546 53.0905 24.1575 53.0359 23.9103C53.0098 23.8042 52.9644 23.706 52.9371 23.6473C52.7202 23.2229 52.4759 23.0614 52.3726 23.0818Z" fill="#0F172A"/>
<path d="M51.2286 20.9962C50.9662 21.0662 51.3808 21.9107 51.7965 22.1523C51.9897 22.2652 52.0896 22.1737 52.0328 21.9355C52.001 21.7978 51.9329 21.6702 51.8908 21.5946C51.6193 21.1317 51.3399 20.9669 51.2286 20.9962Z" fill="#0F172A"/>
<path d="M49.9612 18.9932C49.6874 19.088 50.202 19.9956 50.6677 20.2383C50.8881 20.3535 50.9858 20.2485 50.904 19.9843C50.8574 19.8342 50.7734 19.6987 50.7245 19.6174C50.3906 19.1196 50.0782 18.9525 49.9612 18.9932Z" fill="#0F172A"/>
<path d="M48.5888 17.0608C48.2878 17.1895 48.9796 18.2135 49.4896 18.3964C49.7157 18.4766 49.7793 18.3242 49.6453 18.0272C49.5828 17.8895 49.4976 17.7676 49.4465 17.6953C49.0523 17.1726 48.7081 17.01 48.5888 17.0608Z" fill="#0F172A"/>
<path d="M47.0959 15.2148C46.796 15.3706 47.606 16.4284 48.1523 16.5955C48.3966 16.6689 48.4488 16.5018 48.283 16.1902C48.2057 16.0457 48.1058 15.9193 48.0456 15.8448C47.5889 15.3074 47.2163 15.1527 47.0959 15.2148Z" fill="#0F172A"/>
<path d="M45.5028 13.4717C45.212 13.6535 46.1309 14.7159 46.7 14.8581C46.9534 14.9213 46.9931 14.7441 46.7966 14.428C46.7046 14.2812 46.5921 14.1547 46.5251 14.0791C46.0117 13.5395 45.6175 13.3995 45.5028 13.4717Z" fill="#0F172A"/>
<path d="M43.8267 11.8491C43.5461 12.0568 44.6355 13.1417 45.1671 13.1835C45.4056 13.2016 45.3647 12.9543 45.0717 12.6089C45.0024 12.5276 44.9319 12.4576 44.8774 12.4023C44.3299 11.8897 43.9323 11.7689 43.8267 11.8491Z" fill="#0F172A"/>
<path d="M42.0989 10.3491C41.8558 10.5625 42.9611 11.5413 43.4586 11.5537C43.6813 11.5582 43.6199 11.3245 43.3178 11.0084C43.2462 10.9339 43.169 10.8662 43.119 10.821C42.5669 10.3615 42.1898 10.2689 42.0989 10.3491Z" fill="#0F172A"/>
<path d="M40.2955 8.94904C40.0967 9.15903 41.1838 10.0137 41.6336 9.99899C41.8347 9.99335 41.7586 9.77771 41.4564 9.49998C41.386 9.4345 41.3201 9.38257 41.2611 9.33741C40.7203 8.93662 40.3716 8.86888 40.2955 8.94904Z" fill="#0F172A"/>
<path d="M38.4132 7.64444C38.2519 7.84991 39.3037 8.57923 39.7059 8.54197C39.8842 8.52504 39.7967 8.33198 39.5014 8.09264C39.4321 8.03619 39.3628 7.98765 39.3117 7.95265C38.7903 7.61282 38.4722 7.56766 38.4132 7.64444Z" fill="#0F172A"/>
<path d="M36.4315 6.46134C36.3133 6.64538 37.3175 7.25735 37.6526 7.20654C37.8082 7.1817 37.7128 7.01233 37.4311 6.8091C37.3641 6.7628 37.3027 6.72554 37.2494 6.6928C36.762 6.41392 36.4769 6.38908 36.4315 6.46134Z" fill="#0F172A"/>
<path d="M34.3832 5.3578C34.2889 5.54295 35.2953 6.06003 35.5407 5.95277C35.6429 5.90874 35.5293 5.74165 35.1193 5.52376C34.6683 5.29909 34.4172 5.29119 34.3832 5.3578Z" fill="#0F172A"/>
<path d="M32.2494 4.37704C32.1846 4.5453 33.1036 4.95183 33.3058 4.84342C33.3898 4.79938 33.2751 4.65935 32.8991 4.48771C32.489 4.31268 32.2721 4.31719 32.2494 4.37704Z" fill="#0F172A"/>
<path d="M30.0344 3.5135C29.998 3.65237 30.825 3.96058 30.9749 3.86461C31.0419 3.82171 30.9295 3.70769 30.5932 3.57672C30.2297 3.44576 30.048 3.46157 30.0344 3.5135Z" fill="#0F172A"/>
<path d="M27.7562 2.76927C27.7391 2.88784 28.4559 3.10692 28.5718 3.01883C28.6217 2.97931 28.5195 2.88784 28.2298 2.79637C27.9129 2.70264 27.7618 2.7241 27.7562 2.76927Z" fill="#0F172A"/>
<path d="M25.4102 2.14122C25.4079 2.23724 25.994 2.37845 26.0758 2.30276C26.1076 2.27452 26.0361 2.20561 25.7839 2.14235C25.5272 2.08248 25.4113 2.1062 25.4102 2.14122Z" fill="#0F172A"/>
<path d="M23.0352 1.66241C23.042 1.73584 23.4955 1.81717 23.5523 1.75617C23.5727 1.73245 23.5125 1.68274 23.3159 1.64434C23.1204 1.61158 23.034 1.6353 23.0352 1.66241Z" fill="#0F172A"/>
<path d="M20.672 1.30909C20.6822 1.3587 20.9765 1.39365 21.0095 1.34968C21.022 1.33051 20.9663 1.3012 20.8515 1.28654C20.7151 1.27188 20.6697 1.29218 20.672 1.30909Z" fill="#0F172A"/>
<path d="M18.3166 1.10735C18.3257 1.13219 18.478 1.14122 18.4916 1.11751C18.4961 1.10961 18.478 1.09493 18.4075 1.09042C18.3359 1.08703 18.3143 1.09945 18.3166 1.10735Z" fill="#0F172A"/>
<mask id="mask6_1591_14719" style="mask-type:luminance" maskUnits="userSpaceOnUse" x="15" y="0" width="2" height="2">
<path d="M15.9551 0.978516H16.0471V1.26753H15.9551V0.978516Z" fill="white"/>
</mask>
<g mask="url(#mask6_1591_14719)">
<path d="M15.9605 1.03481H15.9674L15.9605 1.03247L15.9551 1.03481H15.9605Z" fill="#0F172A"/>
</g>
<path d="M55.3828 38.7022L55.4158 38.7676L55.443 38.7236L55.4124 38.6548L55.3828 38.7022Z" fill="#0F172A"/>
<path d="M55.2468 36.3098C55.1741 36.3019 55.173 36.478 55.2434 36.5616C55.29 36.6147 55.3377 36.5932 55.3423 36.513V36.4735C55.3287 36.3674 55.2786 36.3143 55.2468 36.3098Z" fill="#0F172A"/>
<path d="M54.9281 34.0043C54.8167 33.9964 54.8304 34.2584 54.9463 34.3826C55.0202 34.4617 55.0907 34.4244 55.0918 34.3036L55.0872 34.2415C55.0588 34.0834 54.977 34.0077 54.9281 34.0043Z" fill="#0F172A"/>
<path d="M54.4753 31.7383C54.3321 31.7372 54.3707 32.0814 54.5321 32.2372C54.6265 32.3275 54.7117 32.2869 54.714 32.1469C54.7151 32.1051 54.7083 32.0747 54.7015 32.0419C54.6503 31.8331 54.5389 31.7383 54.4753 31.7383Z" fill="#0F172A"/>
<path d="M53.8894 29.4916C53.7121 29.5006 53.7894 29.9386 54.0019 30.126C54.1303 30.24 54.2315 30.1802 54.2224 29.9973C54.219 29.9442 54.2099 29.907 54.1985 29.8652C54.1167 29.6011 53.9678 29.4871 53.8894 29.4916Z" fill="#0F172A"/>
<path d="M53.1633 27.3122C52.9542 27.3359 53.0804 27.8586 53.3463 28.0698C53.5066 28.1973 53.6202 28.1194 53.5941 27.8993C53.5873 27.8361 53.5725 27.7898 53.5554 27.7412C53.4384 27.4285 53.2554 27.3032 53.1633 27.3122Z" fill="#0F172A"/>
<path d="M52.3137 25.1776C52.082 25.2171 52.2637 25.811 52.5772 26.0356C52.7681 26.1722 52.8885 26.0752 52.843 25.8257C52.8305 25.7534 52.8112 25.7015 52.7885 25.6473C52.6306 25.2939 52.4159 25.1596 52.3137 25.1776Z" fill="#0F172A"/>
<path d="M51.3278 23.1012C51.0733 23.1621 51.3255 23.8305 51.6924 24.0687C51.898 24.2019 52.0298 24.106 51.9844 23.8564C51.9651 23.7548 51.9219 23.6634 51.8969 23.6081C51.6936 23.2129 51.4414 23.0729 51.3278 23.1012Z" fill="#0F172A"/>
<path d="M50.2214 21.0834C49.9352 21.1726 50.31 21.9594 50.736 22.1626C50.9677 22.2743 51.0745 22.131 50.9802 21.8375C50.9507 21.746 50.9166 21.6828 50.8803 21.6139C50.6258 21.1861 50.343 21.0461 50.2214 21.0834Z" fill="#0F172A"/>
<path d="M48.9952 19.1434C48.6953 19.2585 49.1611 20.1019 49.6347 20.3006C49.8926 20.409 49.9971 20.2441 49.8722 19.928C49.8335 19.8298 49.7915 19.7621 49.7483 19.6898C49.4394 19.2314 49.1224 19.0937 48.9952 19.1434Z" fill="#0F172A"/>
<path d="M47.6661 17.284C47.3628 17.4263 47.9194 18.3069 48.4317 18.4909C48.7112 18.5925 48.8077 18.4096 48.6498 18.0754C48.601 17.9727 48.5522 17.9016 48.4999 17.8259C48.1398 17.3517 47.7956 17.2242 47.6661 17.284Z" fill="#0F172A"/>
<path d="M46.2319 15.4983C45.932 15.6676 46.5841 16.5719 47.1259 16.739C47.4247 16.8293 47.5087 16.6295 47.3179 16.2829C47.2588 16.1768 47.1986 16.1011 47.1407 16.0266C46.7261 15.5412 46.3603 15.426 46.2319 15.4983Z" fill="#0F172A"/>
<path d="M44.7051 13.805C44.395 14.0127 45.2083 14.9677 45.7672 15.0524C46.0535 15.0953 46.0807 14.8503 45.8285 14.4981C45.774 14.4213 45.7172 14.3547 45.6706 14.3028C45.2095 13.823 44.8289 13.7226 44.7051 13.805Z" fill="#0F172A"/>
<path d="M43.091 12.2379C42.8059 12.4615 43.6772 13.3703 44.227 13.4233C44.5098 13.4504 44.5155 13.2054 44.2417 12.8656C44.1815 12.7922 44.1179 12.7268 44.0702 12.6805C43.5818 12.2278 43.2046 12.1487 43.091 12.2379Z" fill="#0F172A"/>
<path d="M41.3983 10.7578C41.1484 10.9904 42.0504 11.8258 42.5763 11.8483C42.8466 11.8596 42.8307 11.6214 42.5411 11.3053C42.4786 11.2365 42.4116 11.1767 42.3639 11.1338C41.8641 10.7217 41.4994 10.6664 41.3983 10.7578Z" fill="#0F172A"/>
<path d="M39.6338 9.39432C39.4202 9.62463 40.321 10.3652 40.8072 10.3596C41.0571 10.3573 41.0219 10.1327 40.7299 9.85042C40.6652 9.78946 40.6027 9.73978 40.5516 9.69914C40.0586 9.33674 39.7178 9.30287 39.6338 9.39432Z" fill="#0F172A"/>
<path d="M37.7884 8.11149C37.6055 8.34857 38.5722 9.02483 38.9777 8.94355C39.1731 8.9029 39.1027 8.66469 38.6483 8.34632C38.1689 8.03585 37.8577 8.02117 37.7884 8.11149Z" fill="#0F172A"/>
<path d="M35.8666 6.95496C35.7234 7.17959 36.6435 7.74397 36.9968 7.64915C37.1683 7.604 37.0843 7.39066 36.6515 7.1254C36.1994 6.86805 35.9199 6.8703 35.8666 6.95496Z" fill="#0F172A"/>
<path d="M33.8775 5.89143C33.7752 6.09239 34.6431 6.5564 34.9316 6.45592C35.077 6.40625 34.9861 6.21997 34.5863 6.00659C34.1637 5.79773 33.9172 5.81353 33.8775 5.89143Z" fill="#0F172A"/>
<path d="M31.8094 4.9336C31.7367 5.11311 32.5273 5.4789 32.7715 5.37616C32.8908 5.32649 32.7931 5.1673 32.4285 5.00021C32.0468 4.83877 31.8367 4.8636 31.8094 4.9336Z" fill="#0F172A"/>
<path d="M29.6583 4.08166C29.6129 4.24314 30.3229 4.52095 30.5228 4.42044C30.6216 4.37188 30.5228 4.23863 30.1945 4.10989C29.8537 3.98906 29.6765 4.02068 29.6583 4.08166Z" fill="#0F172A"/>
<path d="M27.4303 3.35835C27.4076 3.49383 28.0164 3.6914 28.1721 3.5977C28.2493 3.55254 28.1494 3.44416 27.8756 3.3561C27.5837 3.27255 27.4394 3.30755 27.4303 3.35835Z" fill="#0F172A"/>
<path d="M25.1504 2.7492C25.1448 2.86097 25.6866 2.99306 25.7695 2.89936C25.8002 2.86323 25.7377 2.78759 25.5037 2.72775C25.2663 2.67356 25.1538 2.70743 25.1504 2.7492Z" fill="#0F172A"/>
<path d="M22.8516 2.27426C22.8516 2.35789 23.2244 2.43022 23.3028 2.36354C23.3414 2.3319 23.2744 2.27652 23.1016 2.24262C22.9266 2.21437 22.8504 2.24375 22.8516 2.27426Z" fill="#0F172A"/>
<path d="M20.5509 1.94405C20.5566 1.99598 20.8055 2.02985 20.8487 1.98469C20.8703 1.96211 20.8214 1.92824 20.7135 1.91356C20.6032 1.90115 20.5475 1.92034 20.5509 1.94405Z" fill="#0F172A"/>
<path d="M18.2638 1.73284C18.2684 1.75881 18.3832 1.76671 18.4036 1.74413C18.4116 1.73284 18.3877 1.71816 18.3366 1.71365C18.282 1.71139 18.2616 1.72381 18.2638 1.73284Z" fill="#0F172A"/>
<path d="M54.084 38.2643L54.1124 38.3151L54.1374 38.2812L54.109 38.2305L54.084 38.2643Z" fill="#0F172A"/>
<path d="M53.9438 35.9748C53.8824 35.9692 53.8733 36.0922 53.9324 36.1633C53.9733 36.2141 54.021 36.1983 54.0279 36.1329L54.029 36.1012C54.0188 36.0188 53.9722 35.9782 53.9438 35.9748Z" fill="#0F172A"/>
<path d="M53.6503 33.741C53.5515 33.7365 53.5515 33.9453 53.6503 34.0548C53.7242 34.1361 53.8026 34.1045 53.806 33.995L53.8026 33.9419C53.7776 33.8054 53.6981 33.7422 53.6503 33.741Z" fill="#0F172A"/>
<path d="M53.2081 31.5467C53.0683 31.5489 53.0876 31.8391 53.2365 31.9836C53.3422 32.0875 53.4479 32.04 53.4445 31.891C53.4433 31.865 53.4399 31.8425 53.4354 31.8188C53.3876 31.628 53.274 31.5444 53.2081 31.5467Z" fill="#0F172A"/>
<path d="M52.642 29.3852C52.4658 29.3988 52.5136 29.7645 52.7136 29.9429C52.8591 30.0716 52.9841 30.0039 52.9659 29.8063C52.9625 29.7713 52.9545 29.7386 52.9477 29.7149C52.8727 29.4755 52.725 29.3773 52.642 29.3852Z" fill="#0F172A"/>
<path d="M51.9405 27.2676C51.7268 27.2992 51.8325 27.7723 52.0939 27.953C52.2644 28.0704 52.3883 27.9744 52.353 27.752C52.3473 27.7102 52.3337 27.6729 52.3246 27.6424C52.2166 27.3624 52.0348 27.2551 51.9405 27.2676Z" fill="#0F172A"/>
<path d="M51.1259 25.2095C50.884 25.2592 51.0407 25.8012 51.352 25.9954C51.5565 26.1208 51.6905 26.0033 51.6348 25.747C51.6246 25.6996 51.6087 25.6567 51.5951 25.6228C51.4497 25.3021 51.2338 25.1881 51.1259 25.2095Z" fill="#0F172A"/>
<path d="M50.1771 23.2011C49.9102 23.2733 50.1283 23.883 50.4929 24.0828C50.7303 24.2138 50.8712 24.0704 50.7871 23.7825C50.7723 23.7272 50.7507 23.6786 50.7326 23.6414C50.5463 23.2846 50.2952 23.1683 50.1771 23.2011Z" fill="#0F172A"/>
<path d="M49.1159 21.2609C48.832 21.3579 49.1193 22.0308 49.5306 22.2329C49.8032 22.365 49.9452 22.1957 49.8304 21.8762C49.8089 21.8141 49.7805 21.7599 49.76 21.7204C49.526 21.3309 49.2432 21.2168 49.1159 21.2609Z" fill="#0F172A"/>
<path d="M47.941 19.3887C47.6468 19.5129 48.0047 20.2276 48.4613 20.4218C48.7601 20.5494 48.8986 20.3564 48.7532 20.0165C48.726 19.951 48.693 19.8968 48.6658 19.8517C48.3863 19.4407 48.0739 19.3334 47.941 19.3887Z" fill="#0F172A"/>
<path d="M46.6573 17.5933C46.3437 17.7514 46.8345 18.5473 47.3297 18.6861C47.6433 18.7719 47.7364 18.5224 47.5262 18.16C47.5069 18.1251 47.4751 18.0799 47.4524 18.046C47.1264 17.6204 46.7913 17.5256 46.6573 17.5933Z" fill="#0F172A"/>
<path d="M45.2717 15.879C44.9616 16.0641 45.5296 16.8713 46.051 16.9876C46.3804 17.0599 46.4554 16.7912 46.2123 16.4243C46.1884 16.3881 46.1521 16.3419 46.1248 16.3069C45.7579 15.8812 45.4046 15.7999 45.2717 15.879Z" fill="#0F172A"/>
<path d="M43.8024 14.2461C43.5048 14.4549 44.1432 15.2564 44.6793 15.3468C45.0167 15.4021 45.0735 15.1221 44.7963 14.7575C44.7691 14.7214 44.7293 14.6762 44.7009 14.6423C44.2931 14.2213 43.9307 14.1569 43.8024 14.2461Z" fill="#0F172A"/>
<path d="M42.2426 12.7151C41.9666 12.9409 42.6561 13.7074 43.1889 13.7673C43.5024 13.8012 43.5546 13.5539 43.3025 13.2265C43.2514 13.1599 43.1968 13.1046 43.1525 13.0605C42.747 12.6857 42.3801 12.6022 42.2426 12.7151Z" fill="#0F172A"/>
<path d="M40.6131 11.2805C40.37 11.5141 41.0902 12.2253 41.6037 12.2558C41.907 12.2739 41.9354 12.0289 41.6673 11.723C41.6116 11.6598 41.5571 11.609 41.5117 11.5683C41.0664 11.2037 40.7176 11.18 40.6131 11.2805Z" fill="#0F172A"/>
<path d="M38.8866 9.94935C38.6617 10.2022 39.4637 10.8706 39.9339 10.8232C40.2111 10.795 40.1509 10.5093 39.8067 10.2226L39.7499 10.1774C39.3035 9.85226 38.9764 9.84887 38.8866 9.94935Z" fill="#0F172A"/>
<path d="M37.0998 8.71525C36.9158 8.95909 37.6996 9.5382 38.1221 9.46933C38.3709 9.42982 38.2914 9.16793 37.9563 8.9207L37.9017 8.88232C37.4712 8.60462 37.1748 8.61704 37.0998 8.71525Z" fill="#0F172A"/>
<path d="M35.2493 7.58191C35.1017 7.81558 35.8571 8.30438 36.2342 8.22197C36.4557 8.1723 36.3603 7.9375 36.0377 7.7264L35.9832 7.69366C35.5742 7.46225 35.3073 7.48934 35.2493 7.58191Z" fill="#0F172A"/>
<path d="M33.3119 6.55112C33.2029 6.76221 33.9219 7.16973 34.2377 7.07716C34.4195 7.02298 34.3547 6.82091 33.9765 6.61659C33.5925 6.42807 33.3574 6.46533 33.3119 6.55112Z" fill="#0F172A"/>
<path d="M31.3033 5.62625C31.2249 5.81928 31.8894 6.14437 32.1597 6.04617C32.3131 5.98973 32.2404 5.81363 31.8883 5.65109C31.5588 5.51337 31.3407 5.53482 31.3033 5.62625Z" fill="#0F172A"/>
<path d="M29.2259 4.80452C29.1714 4.98173 29.8177 5.23569 30.0108 5.11379C30.1051 5.05396 30.0245 4.91401 29.7257 4.79662C29.4156 4.68826 29.2475 4.7368 29.2259 4.80452Z" fill="#0F172A"/>
<path d="M27.0794 4.09498C27.0487 4.24395 27.5973 4.42338 27.7462 4.31391C27.8189 4.25975 27.7416 4.14915 27.4894 4.06677C27.2248 3.99116 27.0907 4.03856 27.0794 4.09498Z" fill="#0F172A"/>
<path d="M24.8753 3.50443C24.8628 3.62297 25.306 3.73926 25.414 3.64668C25.4674 3.60039 25.3901 3.51685 25.1901 3.46379C24.981 3.4175 24.8798 3.45927 24.8753 3.50443Z" fill="#0F172A"/>
<path d="M22.6367 3.0418C22.6367 3.13103 22.9674 3.19768 23.0402 3.12313C23.0754 3.08698 23.0186 3.02938 22.864 2.99775C22.7072 2.9729 22.6367 3.00905 22.6367 3.0418Z" fill="#0F172A"/>
<path d="M20.4122 2.71499C20.4156 2.76918 20.6225 2.7974 20.6622 2.74886C20.6827 2.72628 20.6395 2.69128 20.5486 2.67886C20.4508 2.6687 20.4099 2.69354 20.4122 2.71499Z" fill="#0F172A"/>
<path d="M18.2512 2.54531L18.3046 2.52951L18.2557 2.50806L18.2012 2.52386L18.2512 2.54531Z" fill="#0F172A"/>
<path d="M52.6719 37.8465L52.6821 37.8647L52.6947 37.8522L52.681 37.8293L52.6719 37.8465Z" fill="#0F172A"/>
<path d="M52.5251 35.6583C52.4739 35.6549 52.4671 35.7486 52.5137 35.8016C52.5501 35.8411 52.5944 35.8241 52.5967 35.7689V35.7531C52.5876 35.6899 52.5501 35.6594 52.5251 35.6583Z" fill="#0F172A"/>
<path d="M52.235 33.5095C52.1395 33.5084 52.1373 33.6834 52.2316 33.7726C52.3021 33.8414 52.3805 33.8076 52.3793 33.706L52.3759 33.6755C52.3532 33.5615 52.2805 33.5107 52.235 33.5095Z" fill="#0F172A"/>
<path d="M51.8261 31.409C51.6885 31.4158 51.6988 31.6653 51.842 31.7906C51.9522 31.8865 52.0602 31.829 52.05 31.6822L52.0431 31.6393C52.0011 31.4756 51.8908 31.4067 51.8261 31.409Z" fill="#0F172A"/>
<path d="M51.2874 29.3224C51.1124 29.3405 51.1476 29.6622 51.3385 29.8146C51.4851 29.9297 51.6181 29.8485 51.5908 29.6588L51.5795 29.6046C51.5124 29.3947 51.3681 29.3134 51.2874 29.3224Z" fill="#0F172A"/>
<path d="M50.6078 27.2906C50.4066 27.3233 50.4725 27.7106 50.7078 27.8743C50.8885 28.0007 51.0374 27.8957 50.9919 27.6733L50.9726 27.6067C50.8794 27.3629 50.7032 27.2748 50.6078 27.2906Z" fill="#0F172A"/>
<path d="M49.816 25.3178C49.582 25.372 49.6865 25.8191 49.9762 26.002C50.1841 26.1318 50.3477 26.0212 50.3022 25.7818C50.2931 25.7378 50.2795 25.7005 50.267 25.6701C50.1375 25.3856 49.9251 25.293 49.816 25.3178Z" fill="#0F172A"/>
<path d="M48.9121 23.3901C48.6554 23.4669 48.8076 23.9704 49.1439 24.16C49.3847 24.2944 49.5585 24.1578 49.4892 23.888C49.4756 23.8394 49.4574 23.7965 49.4415 23.7626C49.2756 23.4465 49.0314 23.3551 48.9121 23.3901Z" fill="#0F172A"/>
<path d="M47.8921 21.5226C47.6206 21.6242 47.824 22.1717 48.2034 22.3614C48.4817 22.4991 48.6578 22.3388 48.5589 22.0374C48.5408 21.9843 48.5158 21.9358 48.4976 21.9019C48.292 21.5621 48.0205 21.4763 47.8921 21.5226Z" fill="#0F172A"/>
<path d="M46.7723 19.7228C46.4724 19.856 46.778 20.4905 47.213 20.6407C47.5129 20.7445 47.664 20.521 47.5095 20.2004C47.4948 20.1699 47.472 20.1315 47.4539 20.1021C47.2074 19.7409 46.9063 19.663 46.7723 19.7228Z" fill="#0F172A"/>
<path d="M45.5452 17.9924C45.2431 18.1515 45.6123 18.8131 46.0803 18.9486C46.4029 19.0412 46.5437 18.7951 46.3574 18.4586C46.3393 18.427 46.312 18.3875 46.2916 18.3581C46.003 17.9845 45.6827 17.919 45.5452 17.9924Z" fill="#0F172A"/>
<path d="M44.2255 16.3413C43.9313 16.5253 44.3584 17.1902 44.8423 17.3031C45.1854 17.3832 45.3069 17.1236 45.0866 16.7804C45.065 16.7477 45.0343 16.7071 45.0105 16.6777C44.6913 16.3086 44.3596 16.2589 44.2255 16.3413Z" fill="#0F172A"/>
<path d="M42.7993 14.7836C42.5142 14.9902 43.0015 15.6552 43.5025 15.7455C43.8569 15.8087 43.9603 15.5333 43.7092 15.1901C43.6854 15.1585 43.6513 15.1178 43.6252 15.0885C43.2492 14.7023 42.9186 14.6967 42.7993 14.7836Z" fill="#0F172A"/>
<path d="M41.3144 13.3078C41.0384 13.5403 41.6313 14.2155 42.1277 14.2335C42.4571 14.246 42.4924 13.9332 42.1959 13.616L42.1482 13.5674C41.7699 13.2208 41.4337 13.2073 41.3144 13.3078Z" fill="#0F172A"/>
<path d="M39.7341 11.9208C39.4865 12.1635 40.1067 12.7889 40.5838 12.7799C40.9075 12.7731 40.9155 12.4728 40.602 12.1725L40.552 12.1274C40.1646 11.8124 39.8397 11.8169 39.7341 11.9208Z" fill="#0F172A"/>
<path d="M38.0785 10.6328C37.8638 10.8766 38.4942 11.4421 38.9429 11.406C39.2394 11.3834 39.2257 11.0911 38.9134 10.8269L38.8645 10.7863C38.476 10.5063 38.1705 10.5267 38.0785 10.6328Z" fill="#0F172A"/>
<path d="M36.3621 9.43862C36.1815 9.67909 36.8062 10.1736 37.2174 10.116C37.4889 10.0799 37.4526 9.80667 37.1447 9.57636L37.097 9.54249C36.7165 9.30088 36.4382 9.33588 36.3621 9.43862Z" fill="#0F172A"/>
<path d="M34.5689 8.33378C34.4236 8.56292 35.0301 8.98621 35.4016 8.91397C35.6447 8.86769 35.5879 8.61823 35.2903 8.42182L35.2437 8.39247C34.8791 8.18929 34.6303 8.2367 34.5689 8.33378Z" fill="#0F172A"/>
<path d="M32.7061 7.34228C32.5879 7.57147 33.2138 7.93161 33.5239 7.81307C33.6739 7.75436 33.6671 7.55453 33.3138 7.3626C32.9741 7.19777 32.7538 7.25196 32.7061 7.34228Z" fill="#0F172A"/>
<path d="M30.7639 6.43288C30.681 6.63378 31.2592 6.92271 31.5102 6.80646C31.6545 6.73987 31.6 6.56493 31.2921 6.42046C30.9832 6.29292 30.7969 6.35161 30.7639 6.43288Z" fill="#0F172A"/>
<path d="M28.7502 5.64803C28.6946 5.82415 29.2137 6.04543 29.4193 5.93253C29.5204 5.87721 29.5011 5.73044 29.2001 5.6119C28.9115 5.51255 28.7718 5.58029 28.7502 5.64803Z" fill="#0F172A"/>
<path d="M26.6988 4.96585C26.6681 5.11039 27.1021 5.26509 27.2588 5.16572C27.3361 5.1149 27.2997 4.99746 27.0612 4.91729C26.8329 4.85292 26.7113 4.90713 26.6988 4.96585Z" fill="#0F172A"/>
<path d="M24.559 4.38884C24.5443 4.50513 24.9011 4.60787 25.0182 4.52093C25.0773 4.47803 25.0387 4.38433 24.8409 4.3324C24.6568 4.29175 24.5647 4.34143 24.559 4.38884Z" fill="#0F172A"/>
<path d="M22.418 3.95361C22.4157 4.03602 22.6646 4.09247 22.7385 4.02586C22.776 3.99425 22.743 3.93216 22.6055 3.90393C22.4782 3.88474 22.418 3.922 22.418 3.95361Z" fill="#0F172A"/>
<path d="M20.2695 3.63329C20.2729 3.67958 20.4218 3.70441 20.4605 3.6649C20.4798 3.64345 20.4582 3.60845 20.3786 3.59716C20.2979 3.58926 20.2695 3.61522 20.2695 3.63329Z" fill="#0F172A"/>
<path d="M18.1503 3.44284L18.175 3.43502L18.1536 3.42163L18.1289 3.43168L18.1503 3.44284Z" fill="#0F172A"/>
<path d="M50.9906 35.3819C50.9542 35.3807 50.9395 35.4338 50.977 35.4756C51.0088 35.5106 51.0417 35.4936 51.0452 35.4552L51.044 35.4439C51.0383 35.4056 51.0133 35.383 50.9906 35.3819Z" fill="#0F172A"/>
<path d="M50.7156 33.3267C50.6349 33.3267 50.6246 33.4485 50.6974 33.5219C50.761 33.584 50.8383 33.558 50.8383 33.4745L50.836 33.4508C50.819 33.365 50.7553 33.3267 50.7156 33.3267Z" fill="#0F172A"/>
<path d="M50.3206 31.3068C50.2013 31.3147 50.1967 31.501 50.3138 31.6049C50.4127 31.6953 50.5229 31.6512 50.5161 31.5236L50.5116 31.4897C50.4775 31.3576 50.3786 31.3034 50.3206 31.3068Z" fill="#0F172A"/>
<path d="M49.7974 29.3325C49.6439 29.3517 49.653 29.5978 49.8133 29.7265C49.9497 29.836 50.0872 29.7694 50.0667 29.6034L50.0588 29.5583C49.9997 29.3777 49.8678 29.3246 49.7974 29.3325Z" fill="#0F172A"/>
<path d="M49.1569 27.3803C48.9671 27.4153 48.9989 27.7235 49.208 27.8725C49.3853 28.0001 49.5524 27.9064 49.5126 27.7009L49.499 27.6433C49.416 27.4345 49.2489 27.3634 49.1569 27.3803Z" fill="#0F172A"/>
<path d="M48.4091 25.4799C48.191 25.5329 48.2513 25.8952 48.5057 26.0578C48.7238 26.1966 48.9101 26.077 48.851 25.8354L48.8283 25.7711C48.7102 25.5126 48.5091 25.455 48.4091 25.4799Z" fill="#0F172A"/>
<path d="M47.5463 23.6383C47.2941 23.7184 47.4134 24.1554 47.7314 24.3067C47.9722 24.4219 48.1494 24.2694 48.0688 24.0142C48.062 23.9917 48.0484 23.9634 48.0393 23.9409C47.895 23.6699 47.6644 23.601 47.5463 23.6383Z" fill="#0F172A"/>
<path d="M46.5715 21.8596C46.3023 21.9646 46.4659 22.4399 46.8203 22.5877C47.0929 22.7017 47.2747 22.5211 47.1668 22.2434C47.1577 22.2186 47.1429 22.187 47.1304 22.1633C46.9521 21.8732 46.6976 21.8111 46.5715 21.8596Z" fill="#0F172A"/>
<path d="M45.5034 20.1305C45.2194 20.2614 45.4319 20.7762 45.8283 20.9161C46.1361 21.0245 46.3145 20.8191 46.177 20.5188C46.1645 20.4917 46.1452 20.4578 46.1305 20.433C45.9271 20.1395 45.6568 20.0583 45.5034 20.1305Z" fill="#0F172A"/>
<path d="M44.3349 18.4873C44.0487 18.6443 44.3111 19.1805 44.7348 19.307C45.0596 19.4041 45.2368 19.1715 45.071 18.861C45.0562 18.8339 45.0324 18.7978 45.0153 18.773C44.7666 18.4546 44.4678 18.414 44.3349 18.4873Z" fill="#0F172A"/>
<path d="M43.0651 16.8972C42.7868 17.0767 43.0947 17.6196 43.5377 17.728C43.8785 17.8127 44.0409 17.5587 43.8467 17.2437C43.8296 17.2155 43.8035 17.1805 43.7831 17.1546C43.5059 16.8374 43.1969 16.8136 43.0651 16.8972Z" fill="#0F172A"/>
<path d="M41.7121 15.4094C41.435 15.6183 41.8371 16.1906 42.2949 16.238C42.6334 16.273 42.7367 15.9795 42.4914 15.677L42.4539 15.6329C42.1506 15.3236 41.8382 15.3168 41.7121 15.4094Z" fill="#0F172A"/>
<path d="M40.2954 13.9896C40.0376 14.2109 40.476 14.7608 40.9293 14.7846C41.2655 14.8015 41.345 14.5011 41.0815 14.2121L41.0417 14.1703C40.7203 13.879 40.4113 13.8891 40.2954 13.9896Z" fill="#0F172A"/>
<path d="M38.7839 12.6628C38.5454 12.8999 39.0054 13.409 39.4586 13.4079C39.7847 13.4079 39.8381 13.1099 39.5586 12.8389L39.5177 12.8005C39.1849 12.533 38.8884 12.5589 38.7839 12.6628Z" fill="#0F172A"/>
<path d="M37.2089 11.4241C37.0044 11.66 37.4838 12.1297 37.9007 12.1015C38.2085 12.0823 38.238 11.7944 37.9575 11.5517L37.9154 11.5178C37.5803 11.2784 37.2997 11.318 37.2089 11.4241Z" fill="#0F172A"/>
<path d="M35.542 10.2638C35.3693 10.4952 35.851 10.9106 36.236 10.8654C36.5246 10.8316 36.5291 10.5652 36.2429 10.3473L36.202 10.3169C35.8919 10.1227 35.6306 10.1442 35.542 10.2638Z" fill="#0F172A"/>
<path d="M33.8302 9.2111C33.6837 9.44372 34.2016 9.8141 34.5413 9.72038C34.7526 9.66053 34.7526 9.42678 34.4334 9.22465C34.121 9.05188 33.8927 9.11285 33.8302 9.2111Z" fill="#0F172A"/>
<path d="M32.0481 8.24961C31.9345 8.46293 32.4207 8.76767 32.7138 8.66722C32.8967 8.60401 32.8796 8.39634 32.582 8.23156C32.2924 8.09386 32.0958 8.15932 32.0481 8.24961Z" fill="#0F172A"/>
<path d="M30.1818 7.38703C30.1 7.58234 30.5441 7.82507 30.7918 7.72008C30.9463 7.65686 30.9145 7.47509 30.6452 7.34752C30.3828 7.24026 30.217 7.30687 30.1818 7.38703Z" fill="#0F172A"/>
<path d="M28.2555 6.62708C28.1987 6.79873 28.5985 6.98618 28.803 6.88342C28.9302 6.82131 28.8882 6.6666 28.6474 6.56949C28.4168 6.49044 28.2805 6.55593 28.2555 6.62708Z" fill="#0F172A"/>
<path d="M26.2679 5.95726C26.235 6.09618 26.5668 6.22833 26.7237 6.13797C26.8089 6.08715 26.7953 5.96855 26.5782 5.89401C26.3861 5.84205 26.2815 5.89853 26.2679 5.95726Z" fill="#0F172A"/>
<path d="M24.2253 5.41547C24.2094 5.52047 24.4765 5.60853 24.5878 5.53401C24.6572 5.48773 24.6163 5.39628 24.4583 5.35338C24.3094 5.32177 24.2321 5.37031 24.2253 5.41547Z" fill="#0F172A"/>
<path d="M22.172 4.98648C22.1674 5.05761 22.3458 5.10502 22.414 5.05083C22.4572 5.01696 22.4254 4.95826 22.3186 4.93681C22.2208 4.92213 22.1742 4.95713 22.172 4.98648Z" fill="#0F172A"/>
<path d="M20.1094 4.67153C20.1116 4.70546 20.198 4.73035 20.2321 4.69754C20.2526 4.67945 20.2344 4.65117 20.1821 4.64438C20.1367 4.63986 20.1094 4.65456 20.1094 4.67153Z" fill="#0F172A"/>
<path d="M49.332 35.1599L49.3514 35.1827L49.3685 35.1644L49.348 35.1416L49.332 35.1599Z" fill="#0F172A"/>
<path d="M49.0797 33.1877C49.0252 33.19 49.0138 33.2646 49.0604 33.3097C49.1036 33.3549 49.1638 33.3391 49.1649 33.2838L49.1638 33.2679C49.1536 33.2149 49.1081 33.1877 49.0797 33.1877Z" fill="#0F172A"/>
<path d="M48.7024 31.2629C48.6023 31.2696 48.5955 31.4096 48.6899 31.4853C48.7774 31.5541 48.874 31.5101 48.8603 31.4085L48.8592 31.3949C48.8308 31.2911 48.7478 31.2583 48.7024 31.2629Z" fill="#0F172A"/>
<path d="M48.2173 29.3635C48.0764 29.3827 48.0798 29.5848 48.2207 29.6864C48.348 29.7767 48.4832 29.7045 48.456 29.5599L48.4514 29.5408C48.4037 29.3951 48.2809 29.3556 48.2173 29.3635Z" fill="#0F172A"/>
<path d="M47.6011 27.5196C47.4317 27.5546 47.4511 27.8052 47.6306 27.9215C47.7977 28.0288 47.9568 27.9294 47.9102 27.7477L47.9023 27.7251C47.8341 27.5557 47.6863 27.5027 47.6011 27.5196Z" fill="#0F172A"/>
<path d="M46.8903 25.7208C46.6903 25.7739 46.7323 26.0741 46.9562 26.1994C47.1597 26.3134 47.3404 26.1859 47.2722 25.9737L47.2631 25.9466C47.1699 25.7479 46.9892 25.696 46.8903 25.7208Z" fill="#0F172A"/>
<path d="M46.0776 23.9742C45.8538 24.0487 45.9231 24.3919 46.1867 24.5228C46.4173 24.6357 46.6104 24.4991 46.5445 24.2722L46.5218 24.2101C46.3991 23.9855 46.1878 23.937 46.0776 23.9742Z" fill="#0F172A"/>
<path d="M45.1576 22.2632C44.9191 22.3603 45.0213 22.7385 45.3201 22.8672C45.5802 22.9801 45.779 22.8175 45.6881 22.5669L45.6586 22.4992C45.5086 22.2564 45.2758 22.2158 45.1576 22.2632Z" fill="#0F172A"/>
<path d="M44.1386 20.6278C43.8875 20.7497 44.0261 21.1594 44.3589 21.2825C44.6486 21.3897 44.8542 21.199 44.7383 20.9303C44.7281 20.9077 44.7122 20.8795 44.6997 20.8592C44.5293 20.6154 44.284 20.5589 44.1386 20.6278Z" fill="#0F172A"/>
<path d="M43.0272 19.0538C42.7728 19.1972 42.9454 19.625 43.3055 19.7368C43.6179 19.8327 43.8201 19.6171 43.6781 19.3394C43.6668 19.3146 43.6475 19.2864 43.6327 19.2649C43.4248 19.0008 43.1533 18.9827 43.0272 19.0538Z" fill="#0F172A"/>
<path d="M41.8252 17.5492C41.5605 17.7253 41.8058 18.1882 42.2034 18.2559C42.5317 18.3135 42.6885 18.0504 42.4931 17.7716L42.4658 17.7354C42.2307 17.4701 41.9512 17.4667 41.8252 17.5492Z" fill="#0F172A"/>
<path d="M40.5402 16.1265C40.2823 16.3218 40.5652 16.7802 40.9741 16.8276C41.307 16.8649 41.4467 16.5883 41.232 16.3173L41.2013 16.2801C40.9446 16.0226 40.6595 16.0351 40.5402 16.1265Z" fill="#0F172A"/>
<path d="M39.1869 14.7682C38.9472 14.9771 39.2607 15.4208 39.6662 15.4468C39.9991 15.4682 40.1161 15.1826 39.8832 14.9195L39.8491 14.8857C39.5776 14.6429 39.2982 14.6712 39.1869 14.7682Z" fill="#0F172A"/>
<path d="M37.7566 13.5045C37.5419 13.7212 37.877 14.1389 38.2689 14.1411C38.5915 14.1434 38.6835 13.8589 38.4393 13.6163L38.4041 13.5835C38.1246 13.3611 37.8577 13.4029 37.7566 13.5045Z" fill="#0F172A"/>
<path d="M36.2524 12.3191C36.0638 12.5382 36.4092 12.9175 36.7795 12.8994C37.0839 12.8836 37.1509 12.6082 36.9033 12.3903L36.8692 12.3609C36.5886 12.1633 36.3387 12.2175 36.2524 12.3191Z" fill="#0F172A"/>
<path d="M34.6686 11.2143C34.5005 11.4412 34.8992 11.8002 35.2445 11.7336C35.4649 11.6907 35.5683 11.4525 35.2502 11.2222C34.9583 11.0382 34.739 11.1206 34.6686 11.2143Z" fill="#0F172A"/>
<path d="M33.0312 10.1996C32.8972 10.4141 33.2845 10.7212 33.5912 10.6445C33.7889 10.5959 33.8616 10.3735 33.556 10.1782C33.2936 10.0348 33.0914 10.1048 33.0312 10.1996Z" fill="#0F172A"/>
<path d="M31.3149 9.28198C31.2115 9.47847 31.5761 9.73256 31.8419 9.64899C32.0305 9.58914 32.035 9.37909 31.7806 9.23681C31.5375 9.12162 31.3626 9.19389 31.3149 9.28198Z" fill="#0F172A"/>
<path d="M29.5459 8.45134C29.4709 8.62859 29.806 8.83293 30.0309 8.74713C30.1922 8.68504 30.1786 8.50101 29.9469 8.38925C29.7265 8.30118 29.58 8.37231 29.5459 8.45134Z" fill="#0F172A"/>
<path d="M27.7166 7.71652C27.6666 7.8689 27.9598 8.02466 28.1439 7.94114C28.2735 7.88244 28.2542 7.7312 28.0473 7.64767C27.8575 7.58334 27.7405 7.6488 27.7166 7.71652Z" fill="#0F172A"/>
<path d="M25.8288 7.09071C25.7981 7.21043 26.0436 7.31999 26.1777 7.24771C26.2652 7.2014 26.2573 7.08167 26.0834 7.02068C25.93 6.97889 25.8413 7.03649 25.8288 7.09071Z" fill="#0F172A"/>
<path d="M23.8778 6.56932C23.8619 6.6619 24.062 6.72964 24.1483 6.6619C24.1961 6.62464 24.1836 6.54448 24.0551 6.50948C23.9381 6.48465 23.8835 6.53319 23.8778 6.56932Z" fill="#0F172A"/>
<path d="M21.9142 6.1484C21.9096 6.20491 22.0335 6.23882 22.0824 6.19474C22.1097 6.16988 22.0983 6.12014 22.0176 6.10319C21.9506 6.09415 21.9165 6.12467 21.9142 6.1484Z" fill="#0F172A"/>
<path d="M19.9879 5.87088L20.0174 5.85733L19.9924 5.83813L19.9629 5.85055L19.9879 5.87088Z" fill="#0F172A"/>
<path d="M47.3164 33.1114L47.3596 33.1542L47.3948 33.1159L47.3471 33.0764L47.3164 33.1114Z" fill="#0F172A"/>
<path d="M46.9861 31.2628C46.9134 31.2707 46.902 31.361 46.9645 31.4129C47.0281 31.4649 47.1145 31.4333 47.1054 31.3621L47.1043 31.3531C47.085 31.2809 47.0213 31.2594 46.9861 31.2628Z" fill="#0F172A"/>
<path d="M46.5176 29.4708C46.4085 29.4889 46.3983 29.6278 46.5017 29.7045C46.604 29.7802 46.7302 29.7249 46.7109 29.6131L46.7063 29.5996C46.6711 29.4968 46.5745 29.4618 46.5176 29.4708Z" fill="#0F172A"/>
<path d="M45.954 27.7252C45.8165 27.7546 45.8142 27.9329 45.9506 28.022C46.0904 28.1134 46.2439 28.0333 46.2098 27.8889L46.2029 27.8719C46.1518 27.7444 46.0268 27.7094 45.954 27.7252Z" fill="#0F172A"/>
<path d="M45.2729 26.0253C45.1036 26.0716 45.115 26.2929 45.2922 26.3957C45.4707 26.4996 45.6559 26.3912 45.6014 26.2139L45.5934 26.1924C45.5184 26.0355 45.3616 26.0005 45.2729 26.0253Z" fill="#0F172A"/>
<path d="M44.501 24.3545C44.3089 24.42 44.3396 24.6796 44.5498 24.788C44.7658 24.8975 44.9703 24.7587 44.8942 24.5555L44.884 24.5306C44.7851 24.3522 44.601 24.3195 44.501 24.3545Z" fill="#0F172A"/>
<path d="M43.6369 22.7517C43.429 22.8375 43.4824 23.1287 43.7243 23.2371C43.9595 23.342 44.173 23.1942 44.1003 22.9797L44.0753 22.9244C43.947 22.7201 43.738 22.7099 43.6369 22.7517Z" fill="#0F172A"/>
<path d="M42.6766 21.2104C42.4448 21.3245 42.5459 21.6632 42.839 21.749C43.1048 21.8303 43.3013 21.6327 43.182 21.4046L43.165 21.3753C43.0094 21.1551 42.7822 21.1563 42.6766 21.2104Z" fill="#0F172A"/>
<path d="M41.6317 19.7131C41.3999 19.8486 41.5306 20.2008 41.8407 20.2753C42.1269 20.3453 42.3178 20.1252 42.1769 19.8881L42.1553 19.8587C41.9872 19.6465 41.7487 19.6465 41.6317 19.7131Z" fill="#0F172A"/>
<path d="M40.4975 18.2804C40.2658 18.4362 40.4283 18.7996 40.7565 18.8617C41.0587 18.917 41.2416 18.6732 41.0769 18.4339L41.053 18.4023C40.8633 18.1901 40.6145 18.2036 40.4975 18.2804Z" fill="#0F172A"/>
<path d="M39.2898 16.9199C39.0671 17.0938 39.2557 17.4584 39.5942 17.5036C39.9043 17.5431 40.0736 17.2835 39.8907 17.0464L39.8645 17.017C39.6555 16.807 39.4022 16.8341 39.2898 16.9199Z" fill="#0F172A"/>
<path d="M38.0014 15.6505C37.7913 15.8357 38.0048 16.1902 38.3433 16.2161C38.6535 16.2398 38.8 15.97 38.6012 15.7419L38.5739 15.7126C38.3388 15.5049 38.098 15.5636 38.0014 15.6505Z" fill="#0F172A"/>
<path d="M36.6458 14.4385C36.4573 14.6304 36.689 14.9623 37.015 14.9691C37.3149 14.977 37.4376 14.7061 37.2297 14.4949L37.2013 14.4678C36.973 14.2895 36.739 14.3425 36.6458 14.4385Z" fill="#0F172A"/>
<path d="M35.2208 13.3166C35.0447 13.5221 35.3219 13.8416 35.6422 13.8055C35.899 13.775 36.0023 13.5243 35.7524 13.3177C35.5105 13.1473 35.298 13.2263 35.2208 13.3166Z" fill="#0F172A"/>
<path d="M33.7226 12.2604C33.5738 12.4648 33.8566 12.7516 34.1542 12.7008C34.3689 12.6646 34.4882 12.4309 34.2201 12.2356C33.9929 12.0944 33.793 12.1656 33.7226 12.2604Z" fill="#0F172A"/>
<path d="M32.1682 11.2941C32.0467 11.486 32.3227 11.7333 32.5896 11.6712C32.7805 11.6271 32.8702 11.4081 32.6146 11.2444C32.3897 11.1225 32.2216 11.2094 32.1682 11.2941Z" fill="#0F172A"/>
<path d="M30.547 10.432C30.4528 10.6081 30.7152 10.8135 30.9458 10.7469C31.1116 10.6984 31.1764 10.5009 30.9389 10.3665C30.7299 10.2695 30.5879 10.3553 30.547 10.432Z" fill="#0F172A"/>
<path d="M28.8675 9.63974C28.7993 9.79671 29.0357 9.96044 29.2289 9.89043C29.3789 9.83623 29.3914 9.66233 29.1959 9.56634C29.022 9.49859 28.8993 9.5686 28.8675 9.63974Z" fill="#0F172A"/>
<path d="M27.137 8.93759C27.0904 9.07311 27.32 9.19959 27.4677 9.12054C27.5746 9.06407 27.5621 8.92743 27.4029 8.8608C27.2541 8.81111 27.1586 8.87661 27.137 8.93759Z" fill="#0F172A"/>
<path d="M25.3407 8.3395C25.3134 8.44219 25.4896 8.52457 25.5942 8.45912C25.6624 8.41736 25.6601 8.31805 25.5328 8.27291C25.4191 8.24244 25.3521 8.29323 25.3407 8.3395Z" fill="#0F172A"/>
<path d="M23.4892 7.83508C23.4767 7.9062 23.6017 7.95588 23.6687 7.90733C23.7165 7.87346 23.6983 7.80459 23.6153 7.78088C23.5369 7.76621 23.4948 7.80346 23.4892 7.83508Z" fill="#0F172A"/>
<path d="M21.6675 7.48726L21.7244 7.46356L21.6835 7.42065L21.6289 7.44662L21.6675 7.48726Z" fill="#0F172A"/>
<path d="M45.4883 33.017L45.4954 33.0217L45.5013 33.017L45.493 33.0146L45.4883 33.017Z" fill="#0F172A"/>
<path d="M45.1621 31.3068C45.1246 31.3114 45.1064 31.3531 45.1428 31.3825C45.1814 31.413 45.2337 31.3972 45.2292 31.3588V31.3531C45.2201 31.3215 45.1883 31.3046 45.1621 31.3068Z" fill="#0F172A"/>
<path d="M44.7261 29.6272C44.6476 29.6408 44.6363 29.7288 44.7079 29.7762C44.7817 29.8237 44.8715 29.7853 44.8602 29.713L44.859 29.704C44.8363 29.6408 44.7681 29.6204 44.7261 29.6272Z" fill="#0F172A"/>
<path d="M44.1982 27.9755C44.0903 28.0004 44.0744 28.1213 44.1732 28.1879C44.2846 28.2624 44.4256 28.2026 44.3994 28.0896L44.396 28.0761C44.3574 27.9846 44.2573 27.962 44.1982 27.9755Z" fill="#0F172A"/>
<path d="M43.5606 26.3696C43.4242 26.4091 43.4162 26.5694 43.5447 26.645C43.6924 26.7319 43.8674 26.6439 43.8254 26.5051L43.8197 26.4893C43.7663 26.3775 43.647 26.3448 43.5606 26.3696Z" fill="#0F172A"/>
<path d="M42.8473 24.8102C42.6814 24.87 42.695 25.0709 42.8701 25.1477C43.0485 25.2256 43.2281 25.1082 43.1712 24.9513L43.1621 24.9332C43.0837 24.7898 42.9269 24.7819 42.8473 24.8102Z" fill="#0F172A"/>
<path d="M42.0244 23.2932C41.8426 23.3711 41.8732 23.5991 42.0756 23.6748C42.2813 23.7515 42.4733 23.607 42.3983 23.4332L42.387 23.4117C42.2881 23.2537 42.1119 23.2548 42.0244 23.2932Z" fill="#0F172A"/>
<path d="M41.1294 21.8438C40.9329 21.9443 40.984 22.1984 41.2146 22.2695C41.4464 22.3395 41.6485 22.1668 41.5554 21.9793L41.5418 21.9567C41.4248 21.793 41.2294 21.793 41.1294 21.8438Z" fill="#0F172A"/>
<path d="M40.1517 20.4412C39.9529 20.5587 40.0256 20.8286 40.271 20.8918C40.5231 20.955 40.7265 20.7563 40.6117 20.5598L40.597 20.5361C40.4618 20.369 40.2551 20.3803 40.1517 20.4412Z" fill="#0F172A"/>
<path d="M39.0933 19.1016C38.8979 19.2359 38.9899 19.5091 39.2478 19.561C39.5102 19.6118 39.7056 19.394 39.5738 19.1964L39.5567 19.1727C39.4068 19.0091 39.1967 19.0328 39.0933 19.1016Z" fill="#0F172A"/>
<path d="M37.9583 17.8187C37.7674 17.9677 37.881 18.2466 38.1491 18.2827C38.4206 18.3222 38.6035 18.0885 38.4558 17.8921L38.4365 17.8684C38.2809 17.7159 38.0741 17.7284 37.9583 17.8187Z" fill="#0F172A"/>
<path d="M36.7453 16.6088C36.5681 16.768 36.6987 17.039 36.9645 17.0615C37.236 17.0841 37.4007 16.8403 37.2417 16.6529L37.219 16.6303C37.0565 16.4869 36.8543 16.5129 36.7453 16.6088Z" fill="#0F172A"/>
<path d="M35.4706 15.4788C35.2991 15.655 35.4729 15.927 35.7478 15.9135C35.9693 15.9033 36.1487 15.6787 35.9329 15.4743C35.7648 15.3434 35.5683 15.3784 35.4706 15.4788Z" fill="#0F172A"/>
<path d="M34.127 14.4009C33.9793 14.577 34.1622 14.8266 34.4201 14.7995C34.6507 14.7769 34.7688 14.5454 34.5655 14.3738C34.3849 14.2496 34.2008 14.3151 34.127 14.4009Z" fill="#0F172A"/>
<path d="M32.7318 13.4157C32.6056 13.5873 32.7943 13.812 33.0307 13.7736C33.2432 13.7409 33.3353 13.5174 33.1353 13.3706C32.9591 13.2622 32.7932 13.3322 32.7318 13.4157Z" fill="#0F172A"/>
<path d="M31.2627 12.5088C31.1627 12.6681 31.3434 12.8578 31.5514 12.8126C31.7367 12.7731 31.8049 12.5687 31.6162 12.4467C31.4446 12.3552 31.3082 12.4365 31.2627 12.5088Z" fill="#0F172A"/>
<path d="M29.728 11.6853C29.6507 11.832 29.8223 11.9889 30.0042 11.9381C30.1462 11.8963 30.2178 11.718 30.036 11.6141C29.878 11.5419 29.7632 11.6198 29.728 11.6853Z" fill="#0F172A"/>
<path d="M28.1543 10.9331C28.0986 11.0584 28.2509 11.1837 28.3998 11.1329C28.518 11.0923 28.5646 10.9398 28.4032 10.8597C28.2691 10.8078 28.1793 10.8766 28.1543 10.9331Z" fill="#0F172A"/>
<path d="M26.5156 10.2725C26.4793 10.3774 26.6191 10.4677 26.7316 10.4101C26.8089 10.3706 26.8293 10.2567 26.7054 10.2047C26.6122 10.1743 26.5372 10.2149 26.5156 10.2725Z" fill="#0F172A"/>
<path d="M24.829 9.70816C24.8074 9.78493 24.9153 9.84476 24.9926 9.7996C25.0517 9.76348 25.0472 9.68219 24.9619 9.65058C24.8824 9.63026 24.8381 9.67542 24.829 9.70816Z" fill="#0F172A"/>
<path d="M23.0924 9.22821C23.0855 9.26885 23.1412 9.30385 23.1844 9.27224C23.2162 9.25079 23.2094 9.20789 23.1628 9.19321C23.1208 9.18531 23.0958 9.20902 23.0924 9.22821Z" fill="#0F172A"/>
<path d="M21.3346 8.86716L21.3412 8.86324L21.3373 8.85669L21.332 8.86062L21.3346 8.86716Z" fill="#0F172A"/>
<path d="M43.2461 31.3929L43.2532 31.3976L43.2591 31.3917L43.2508 31.387L43.2461 31.3929Z" fill="#0F172A"/>
<path d="M42.8355 29.8188C42.7946 29.8267 42.7855 29.865 42.8207 29.8898C42.8616 29.9192 42.915 29.8944 42.9105 29.8583L42.9093 29.8538C42.898 29.8222 42.8593 29.8143 42.8355 29.8188Z" fill="#0F172A"/>
<path d="M42.3443 28.2908C42.2715 28.3089 42.2579 28.3834 42.3238 28.4218C42.3954 28.4658 42.492 28.4252 42.4772 28.3574L42.475 28.3484C42.4534 28.2987 42.3909 28.2806 42.3443 28.2908Z" fill="#0F172A"/>
<path d="M41.7609 26.7878C41.6563 26.8194 41.6461 26.9266 41.7415 26.9763C41.8484 27.0328 41.9836 26.9662 41.9563 26.8713L41.9529 26.86C41.912 26.7776 41.8131 26.772 41.7609 26.7878Z" fill="#0F172A"/>
<path d="M41.0816 25.3265C40.9588 25.3728 40.9532 25.506 41.0736 25.5613C41.21 25.6234 41.3691 25.5331 41.3282 25.4168L41.3225 25.4033C41.2725 25.3152 41.1623 25.2983 41.0816 25.3265Z" fill="#0F172A"/>
<path d="M40.32 23.9204C40.1813 23.9825 40.1859 24.1405 40.3291 24.1981C40.4927 24.2636 40.6723 24.1462 40.6155 24.0096L40.6086 23.9938C40.5382 23.8865 40.3984 23.8854 40.32 23.9204Z" fill="#0F172A"/>
<path d="M39.4787 22.556C39.3252 22.6373 39.3423 22.8144 39.5082 22.8709C39.6957 22.9318 39.8901 22.7885 39.8174 22.6406L39.8083 22.6237C39.7219 22.5041 39.5639 22.5131 39.4787 22.556Z" fill="#0F172A"/>
<path d="M38.5731 21.2523C38.4118 21.3494 38.4436 21.5437 38.6266 21.5933C38.8323 21.6487 39.0323 21.4804 38.9437 21.3234L38.9312 21.3054C38.83 21.1812 38.6618 21.2004 38.5731 21.2523Z" fill="#0F172A"/>
<path d="M37.5959 19.9988C37.4357 20.1083 37.48 20.307 37.6721 20.3477C37.8903 20.3951 38.0835 20.2077 37.9812 20.0485L37.9676 20.0304C37.8562 19.9085 37.6823 19.9379 37.5959 19.9988Z" fill="#0F172A"/>
<path d="M36.5367 18.7878C36.373 18.9176 36.4515 19.1355 36.6685 19.1525C36.8822 19.1683 37.064 18.9741 36.9243 18.8036C36.797 18.6805 36.6219 18.7201 36.5367 18.7878Z" fill="#0F172A"/>
<path d="M35.4104 17.6709C35.257 17.8075 35.3479 18.0209 35.5639 18.0254C35.7787 18.031 35.9435 17.8255 35.7923 17.663C35.6605 17.5489 35.49 17.5986 35.4104 17.6709Z" fill="#0F172A"/>
<path d="M34.2238 16.5971C34.0828 16.7405 34.1828 16.9381 34.3931 16.9302C34.5999 16.9245 34.7443 16.7179 34.5886 16.5678C34.4556 16.465 34.2954 16.5226 34.2238 16.5971Z" fill="#0F172A"/>
<path d="M32.9704 15.6009C32.8488 15.7431 32.9613 15.9294 33.1556 15.9125C33.3511 15.8956 33.475 15.6901 33.317 15.5546C33.1829 15.4632 33.0329 15.5264 32.9704 15.6009Z" fill="#0F172A"/>
<path d="M31.6583 14.6719C31.5583 14.8062 31.6731 14.9711 31.8469 14.9463C32.0288 14.9226 32.1118 14.7294 31.9856 14.6233L31.9697 14.6109C31.8413 14.5352 31.7106 14.6007 31.6583 14.6719Z" fill="#0F172A"/>
<path d="M30.2897 13.821C30.2068 13.9508 30.3193 14.0919 30.4807 14.0614C30.6432 14.0298 30.7034 13.8503 30.583 13.7611L30.5682 13.751C30.4454 13.6877 30.3318 13.7532 30.2897 13.821Z" fill="#0F172A"/>
<path d="M28.8612 13.0353C28.801 13.1471 28.9055 13.2634 29.0362 13.2295C29.1715 13.1956 29.2113 13.0409 29.1033 12.972L29.0919 12.963C28.9794 12.9122 28.8896 12.9799 28.8612 13.0353Z" fill="#0F172A"/>
<path d="M27.385 12.3443C27.3441 12.4358 27.435 12.5227 27.5362 12.4888C27.6283 12.4584 27.6748 12.3353 27.5623 12.2788C27.4714 12.2427 27.4055 12.2992 27.385 12.3443Z" fill="#0F172A"/>
<path d="M25.8468 11.7218C25.8207 11.7941 25.9014 11.8539 25.973 11.8178C26.0309 11.7895 26.0525 11.7014 25.9718 11.6675C25.9071 11.6449 25.8582 11.6867 25.8468 11.7218Z" fill="#0F172A"/>
<path d="M24.2788 11.1903C24.2686 11.2286 24.314 11.267 24.3584 11.2422C24.3936 11.2219 24.3959 11.1722 24.3504 11.1553C24.314 11.1462 24.2856 11.1666 24.2788 11.1903Z" fill="#0F172A"/>
<path d="M22.6693 10.7451L22.6875 10.7382L22.6761 10.72L22.6602 10.7302L22.6693 10.7451Z" fill="#0F172A"/>
<path d="M40.8398 30.0633L40.8467 30.0674L40.8522 30.062L40.8439 30.0579L40.8398 30.0633Z" fill="#0F172A"/>
<path d="M40.3691 28.6682L40.4305 28.6942L40.4692 28.6513L40.4055 28.6265L40.3691 28.6682Z" fill="#0F172A"/>
<path d="M39.8589 27.2506C39.7998 27.2687 39.7884 27.3229 39.8373 27.35C39.8964 27.3816 39.9884 27.3432 39.9759 27.2913L39.9725 27.2856C39.9498 27.2405 39.8918 27.2393 39.8589 27.2506Z" fill="#0F172A"/>
<path d="M39.2406 25.9086C39.1576 25.9402 39.1508 26.0237 39.2269 26.0542C39.3122 26.0881 39.4338 26.0294 39.4008 25.9481C39.3679 25.8905 39.2872 25.8905 39.2406 25.9086Z" fill="#0F172A"/>
<path d="M38.5382 24.5959C38.4461 24.6366 38.4222 24.7404 38.52 24.7799C38.637 24.8274 38.7871 24.7404 38.7496 24.6456L38.7461 24.6354C38.6995 24.5643 38.5961 24.5688 38.5382 24.5959Z" fill="#0F172A"/>
<path d="M37.7733 23.3281C37.6642 23.3869 37.6608 23.5043 37.7676 23.5416C37.9006 23.5868 38.0677 23.4761 38.0199 23.3733L38.0142 23.362C37.9552 23.2829 37.8381 23.2954 37.7733 23.3281Z" fill="#0F172A"/>
<path d="M36.92 22.1232C36.795 22.1999 36.8087 22.3377 36.945 22.367C37.0939 22.3975 37.2678 22.2688 37.1894 22.1457C37.1189 22.0599 36.9894 22.0803 36.92 22.1232Z" fill="#0F172A"/>
<path d="M36.0205 20.9659C35.8955 21.054 35.9194 21.1985 36.0626 21.2211C36.2205 21.2448 36.3944 21.0969 36.3047 20.9716C36.2228 20.8869 36.091 20.9162 36.0205 20.9659Z" fill="#0F172A"/>
<path d="M35.0456 19.8559C34.9228 19.9541 34.9569 20.102 35.1047 20.1144C35.2661 20.1291 35.4343 19.9676 35.3354 19.8457C35.2479 19.7633 35.1126 19.8028 35.0456 19.8559Z" fill="#0F172A"/>
<path d="M34.0106 18.8042C33.8958 18.9092 33.939 19.0559 34.0879 19.0604C34.2482 19.0649 34.4027 18.8945 34.2959 18.7782C34.2038 18.7004 34.0743 18.7466 34.0106 18.8042Z" fill="#0F172A"/>
<path d="M32.8926 17.8102C32.7948 17.913 32.8289 18.0654 32.9881 18.0632C33.1483 18.0609 33.2904 17.8825 33.1744 17.7695C33.0778 17.6961 32.9517 17.7503 32.8926 17.8102Z" fill="#0F172A"/>
<path d="M31.7401 16.894C31.6503 17.0002 31.7094 17.13 31.8447 17.121C31.997 17.1108 32.0993 16.9426 32.0083 16.8534L31.9958 16.8432C31.9027 16.78 31.7901 16.8353 31.7401 16.894Z" fill="#0F172A"/>
<path d="M30.5298 16.0239C30.4525 16.1278 30.5162 16.2429 30.6389 16.2259C30.7708 16.2079 30.8674 16.0454 30.7594 15.9619C30.6707 15.91 30.5707 15.9664 30.5298 16.0239Z" fill="#0F172A"/>
<path d="M29.2673 15.2357C29.2151 15.3204 29.2628 15.4242 29.3719 15.4028C29.4855 15.3802 29.5537 15.2414 29.456 15.1759C29.3787 15.1353 29.298 15.1861 29.2673 15.2357Z" fill="#0F172A"/>
<path d="M27.9376 14.5068C27.8944 14.5846 27.9592 14.6614 28.0422 14.6332C28.1263 14.6061 28.1649 14.4932 28.0888 14.4492C28.0183 14.4176 27.9581 14.4673 27.9376 14.5068Z" fill="#0F172A"/>
<path d="M26.571 13.8557C26.5471 13.9099 26.5915 13.9685 26.6551 13.9437C26.7165 13.92 26.7392 13.8377 26.6778 13.8061C26.6278 13.788 26.5858 13.8241 26.571 13.8557Z" fill="#0F172A"/>
<path d="M25.1761 13.3324L25.2329 13.3076L25.2147 13.2534L25.1602 13.2805L25.1761 13.3324Z" fill="#0F172A"/>
<path d="M23.6988 12.7846H23.7057L23.7029 12.7764L23.6934 12.7805L23.6988 12.7846Z" fill="#0F172A"/>
<path d="M37.8633 27.7982L37.8974 27.8084L37.919 27.7847L37.8837 27.7756L37.8633 27.7982Z" fill="#0F172A"/>
<path d="M37.308 26.5336C37.2625 26.5517 37.2534 26.5901 37.2909 26.6036C37.3364 26.6217 37.408 26.5901 37.3932 26.5494C37.3784 26.5246 37.3387 26.5223 37.308 26.5336Z" fill="#0F172A"/>
<path d="M36.6736 25.3352C36.61 25.3646 36.6088 25.4153 36.6566 25.4322C36.7179 25.4536 36.8157 25.4029 36.7895 25.3476C36.7668 25.3138 36.7077 25.3195 36.6736 25.3352Z" fill="#0F172A"/>
<path d="M35.9667 24.1752C35.8928 24.2147 35.8848 24.2859 35.953 24.3062C36.0348 24.3299 36.1599 24.2565 36.1224 24.1865C36.0848 24.1379 36.0076 24.1537 35.9667 24.1752Z" fill="#0F172A"/>
<path d="M35.2028 23.0768C35.1244 23.1242 35.1221 23.2055 35.1983 23.2224C35.2835 23.2416 35.4211 23.1615 35.371 23.0802C35.3324 23.0362 35.2563 23.043 35.2028 23.0768Z" fill="#0F172A"/>
<path d="M34.3707 22.0034C34.2855 22.0632 34.2889 22.1524 34.3753 22.1682C34.4844 22.1874 34.6105 22.079 34.5662 22.0034L34.5605 21.9955C34.5105 21.9435 34.4196 21.9695 34.3707 22.0034Z" fill="#0F172A"/>
<path d="M33.4716 20.986C33.3887 21.0537 33.3966 21.1451 33.4875 21.1553C33.5966 21.1677 33.7342 21.0492 33.6682 20.9668C33.6126 20.9161 33.5216 20.9465 33.4716 20.986Z" fill="#0F172A"/>
<path d="M32.5274 20.0214C32.449 20.0925 32.4638 20.1852 32.5547 20.1919C32.6695 20.1987 32.7831 20.07 32.7286 19.9988L32.7217 19.992C32.6604 19.9401 32.5695 19.983 32.5274 20.0214Z" fill="#0F172A"/>
<path d="M31.5137 19.1204C31.4421 19.1926 31.4636 19.2806 31.5512 19.2828C31.6603 19.284 31.7603 19.1565 31.7012 19.0888L31.6955 19.082C31.6375 19.0391 31.5534 19.0786 31.5137 19.1204Z" fill="#0F172A"/>
<path d="M30.4573 18.2568C30.3971 18.3279 30.4221 18.4093 30.5005 18.4048C30.5994 18.3991 30.6926 18.276 30.6221 18.2139C30.5687 18.1777 30.4971 18.2094 30.4573 18.2568Z" fill="#0F172A"/>
<path d="M29.3484 17.4749C29.2984 17.5426 29.3302 17.6137 29.4052 17.6001C29.487 17.5832 29.5518 17.4772 29.4893 17.4275C29.4427 17.4016 29.3802 17.4321 29.3484 17.4749Z" fill="#0F172A"/>
<path d="M28.1829 16.7357C28.1454 16.7933 28.1738 16.8475 28.2329 16.8328C28.292 16.8181 28.3466 16.7312 28.2898 16.6928C28.2511 16.6736 28.2045 16.6996 28.1829 16.7357Z" fill="#0F172A"/>
<path d="M26.9735 16.0716C26.9508 16.1122 26.9758 16.1518 27.0144 16.1382C27.0542 16.1247 27.0871 16.0625 27.0462 16.0388C27.019 16.0264 26.9871 16.0456 26.9735 16.0716Z" fill="#0F172A"/>
<path d="M25.7284 15.5012L25.7591 15.4864L25.7534 15.4556L25.7227 15.4704L25.7284 15.5012Z" fill="#0F172A"/>
<path d="M34.7109 26.1542L34.7408 26.1587L34.7546 26.137L34.7259 26.1348L34.7109 26.1542Z" fill="#0F172A"/>
<path d="M34.0742 25.1397L34.1333 25.1409L34.1606 25.098L34.1026 25.0957L34.0742 25.1397Z" fill="#0F172A"/>
<path d="M33.4068 24.0767C33.3682 24.1016 33.3614 24.1366 33.3932 24.1445C33.4375 24.1546 33.5103 24.1083 33.4898 24.0733C33.4716 24.0519 33.4296 24.0621 33.4068 24.0767Z" fill="#0F172A"/>
<path d="M32.6535 23.1203C32.6092 23.1519 32.6046 23.1937 32.6444 23.2027C32.6898 23.2106 32.7819 23.153 32.7512 23.1101C32.7285 23.0853 32.6785 23.1022 32.6535 23.1203Z" fill="#0F172A"/>
<path d="M31.8385 22.199C31.7987 22.2329 31.7897 22.2826 31.8351 22.2883C31.8919 22.2951 31.9783 22.2262 31.9442 22.1821C31.9192 22.1595 31.8715 22.1742 31.8385 22.199Z" fill="#0F172A"/>
<path d="M30.982 21.3201C30.9434 21.3551 30.9377 21.4059 30.9843 21.4082C31.0411 21.4127 31.1207 21.3382 31.0843 21.2976C31.0593 21.2772 31.0116 21.293 30.982 21.3201Z" fill="#0F172A"/>
<path d="M30.0674 20.4972C30.0322 20.5345 30.0356 20.5785 30.0742 20.5785C30.1288 20.5807 30.1913 20.5063 30.164 20.4747L30.1606 20.4702C30.1356 20.4521 30.0924 20.4702 30.0674 20.4972Z" fill="#0F172A"/>
<path d="M29.1111 19.7185C29.0838 19.7501 29.0884 19.792 29.127 19.7863C29.1713 19.7818 29.2179 19.7196 29.1884 19.6925C29.1657 19.6778 29.1293 19.6948 29.1111 19.7185Z" fill="#0F172A"/>
<path d="M28.1133 19.0562L28.1667 19.0381L28.1724 18.9873L28.119 19.0054L28.1133 19.0562Z" fill="#0F172A"/>
<path d="M27.0508 18.357L27.077 18.3479V18.3228L27.0519 18.333L27.0508 18.357Z" fill="#0F172A"/>
<path d="M30.1406 23.484H30.1464L30.1507 23.4768L30.1406 23.4782V23.484Z" fill="#0F172A"/>
<path d="M29.3789 22.708L29.3841 22.7098L29.3875 22.7012L29.3789 22.7029V22.708Z" fill="#0F172A"/>
<path d="M28.5664 21.9747H28.5722L28.5765 21.9661L28.5678 21.9704L28.5664 21.9747Z" fill="#0F172A"/>
<mask id="mask7_1591_14719" style="mask-type:luminance" maskUnits="userSpaceOnUse" x="12" y="23" width="52" height="18">
<path d="M63.7551 23.4753H12.8652V40.2384H63.7551V23.4753Z" fill="white"/>
</mask>
<g mask="url(#mask7_1591_14719)">
<path d="M16.1148 36.3714V27.6738H14.2734V36.3714H16.1148Z" fill="#0F172A"/>
<path d="M33.2122 29.3269V27.6741H26.8658V29.3269H33.2122ZM35.0536 36.3716V31.1581H33.2122V36.3716H35.0536ZM32.3421 32.7984V31.1581H26.8658V32.7984H32.3421ZM25.9956 32.7984V27.6741H24.1543V32.7984H25.9956ZM32.3421 36.3716V34.7188H24.1543V36.3716H32.3421Z" fill="#0F172A"/>
<path d="M57.4159 35.1511L51.6851 29.5051L50.405 30.7763L56.1369 36.4483L57.4159 35.1511ZM52.0691 34.7187V33.0523H47.4504V34.7187H52.0691ZM51.0831 28.8819L49.7791 27.5723L42.166 35.1387L43.4712 36.4483L51.0831 28.8819Z" fill="#0F172A"/>
</g>
<path d="M1.56543 31.8415H0.291493C0.29824 32.0668 0.352221 32.2331 0.453434 32.3404C0.553297 32.445 0.690946 32.496 0.863683 32.496C0.995934 32.496 1.10255 32.4732 1.18217 32.4263C1.26449 32.3807 1.32926 32.3069 1.37649 32.2063H1.41428L1.59242 32.3082C1.53844 32.445 1.45207 32.5523 1.33331 32.6301C1.21455 32.7052 1.05801 32.7428 0.863683 32.7428C0.682849 32.7428 0.529006 32.7066 0.399453 32.6355C0.2726 32.5644 0.174086 32.4571 0.102562 32.3136C0.0337375 32.1714 0 31.9944 0 31.7825C0 31.572 0.0350869 31.3949 0.10796 31.2514C0.183533 31.1052 0.283396 30.998 0.410249 30.9296C0.539802 30.8585 0.685548 30.8223 0.847489 30.8223C1.0877 30.8223 1.27528 30.8893 1.40888 31.0208C1.54113 31.1535 1.60861 31.352 1.60861 31.6162C1.60861 31.7208 1.60591 31.7906 1.60321 31.8254L1.56543 31.8415ZM1.33871 31.6162C1.33466 31.4204 1.29013 31.2769 1.20376 31.1871C1.12009 31.0985 1.00133 31.0529 0.847489 31.0529C0.685548 31.0529 0.557345 31.0985 0.46423 31.1871C0.369764 31.2769 0.314434 31.4204 0.296891 31.6162H1.33871Z" fill="#0F172A"/>
<path d="M2.61591 32.7423C2.49986 32.7423 2.39189 32.7262 2.29203 32.694C2.19082 32.6618 2.1058 32.6189 2.03832 32.5652C1.9695 32.5116 1.92092 32.4526 1.89258 32.3882L2.05452 32.2166H2.0923C2.15303 32.3104 2.22456 32.3802 2.30823 32.4258C2.39459 32.4727 2.49716 32.4955 2.61591 32.4955C2.75221 32.4955 2.85612 32.4687 2.929 32.415C3.00052 32.3614 3.03696 32.289 3.03696 32.1951C3.03696 32.12 3.01537 32.0596 2.97218 32.0127C2.929 31.9671 2.85882 31.9309 2.76166 31.9054L2.44857 31.8303C2.27854 31.7914 2.15708 31.7284 2.08151 31.6425C2.00594 31.554 1.96815 31.4441 1.96815 31.3153C1.96815 31.2161 1.99244 31.1276 2.04372 31.0525C2.09365 30.9773 2.16788 30.921 2.26504 30.8808C2.36221 30.8419 2.47826 30.8218 2.61591 30.8218C2.7846 30.8218 2.9182 30.8459 3.01537 30.8915C3.11523 30.9385 3.1935 31.0042 3.24748 31.09L3.09094 31.2402H3.05855C3.00052 31.1732 2.93574 31.1249 2.86422 31.0954C2.79135 31.0632 2.70903 31.0471 2.61591 31.0471C2.49311 31.0471 2.39729 31.0712 2.32982 31.1168C2.26504 31.1597 2.23265 31.2228 2.23265 31.3046C2.23265 31.3797 2.25559 31.4414 2.30283 31.487C2.34871 31.5299 2.42968 31.5661 2.54574 31.5943L2.85343 31.6694C3.01537 31.7056 3.13142 31.7686 3.2043 31.8571C3.27582 31.947 3.31226 32.0583 3.31226 32.1897C3.31226 32.297 3.28527 32.3936 3.23129 32.4794C3.18001 32.5626 3.10308 32.6269 2.99917 32.6725C2.89391 32.7181 2.76706 32.7423 2.61591 32.7423Z" fill="#0F172A"/>
<path d="M4.75731 32.3902L4.84368 32.5887C4.80049 32.6316 4.74246 32.6638 4.67094 32.6853C4.60211 32.7094 4.52519 32.7228 4.43882 32.7228C4.08525 32.7228 3.90982 32.5444 3.90982 32.1863V31.0596H3.58594V30.8342H3.90982V30.4426L4.18512 30.3997V30.8342H4.7843V31.0596H4.18512V32.1595C4.18512 32.3714 4.27688 32.476 4.46042 32.476C4.56028 32.476 4.64935 32.4478 4.72492 32.3902H4.75731Z" fill="#0F172A"/>
<path d="M5.38297 32.6895C5.31816 32.6895 5.26685 32.6721 5.23174 32.6358C5.19529 32.601 5.17773 32.554 5.17773 32.4963C5.17773 32.436 5.19529 32.3877 5.23174 32.3515C5.26685 32.3126 5.31816 32.2925 5.38297 32.2925C5.44777 32.2925 5.49773 32.3113 5.53419 32.3461C5.57334 32.3823 5.5936 32.4306 5.5936 32.491C5.5936 32.5487 5.57334 32.5969 5.53419 32.6358C5.49773 32.6721 5.44777 32.6895 5.38297 32.6895Z" fill="#0F172A"/>
<path d="M64.0368 33.0234C64.0368 32.8879 64.0503 32.7793 64.0799 32.6962C64.1083 32.6143 64.1582 32.5379 64.2311 32.4655C64.3026 32.3944 64.4173 32.3018 64.5766 32.1865L64.8465 31.9933C64.9463 31.9182 65.0273 31.8512 65.0894 31.7895C65.1541 31.7291 65.2041 31.6634 65.2405 31.591C65.2756 31.5199 65.2945 31.4394 65.2945 31.3495C65.2945 31.2034 65.254 31.0947 65.1757 31.0223C65.1002 30.9472 64.9787 30.9096 64.8141 30.9096C64.6845 30.9096 64.5685 30.9405 64.4686 31.0008C64.3674 31.0585 64.2864 31.143 64.2257 31.253L64.1879 31.2637L64.0098 31.0813C64.0961 30.9458 64.2054 30.8399 64.339 30.7648C64.4753 30.6897 64.6332 30.6521 64.8141 30.6521C64.9895 30.6521 65.1353 30.6829 65.2513 30.7433C65.366 30.801 65.451 30.8815 65.505 30.9847C65.5617 31.0893 65.5914 31.2101 65.5914 31.3495C65.5914 31.4568 65.5671 31.5588 65.5212 31.6553C65.474 31.7492 65.4079 31.8378 65.3215 31.9236C65.2378 32.0068 65.1339 32.0939 65.0084 32.1865L64.7331 32.385C64.6319 32.4601 64.5523 32.5245 64.4956 32.5781C64.4416 32.6318 64.4011 32.6841 64.3768 32.7337C64.3512 32.7807 64.339 32.8356 64.339 32.9H65.5914V33.1361H64.0368V33.0234Z" fill="#0F172A"/>
<path d="M66.9765 33.1734C66.7929 33.1734 66.6283 33.1305 66.4853 33.0446C66.3409 32.9561 66.2261 32.818 66.1398 32.6315C66.0561 32.4424 66.0156 32.2023 66.0156 31.9126C66.0156 31.6202 66.0561 31.3801 66.1398 31.1937C66.2261 31.0046 66.3409 30.8665 66.4853 30.7806C66.6283 30.6948 66.7929 30.6519 66.9765 30.6519C67.156 30.6519 67.3179 30.6948 67.4623 30.7806C67.6053 30.8665 67.7187 31.0046 67.8024 31.1937C67.8887 31.3801 67.9319 31.6202 67.9319 31.9126C67.9319 32.2023 67.8887 32.4424 67.8024 32.6315C67.7187 32.818 67.6053 32.9561 67.4623 33.0446C67.3179 33.1305 67.156 33.1734 66.9765 33.1734ZM66.9765 32.9051C67.1883 32.9051 67.3503 32.8287 67.4623 32.6744C67.573 32.5215 67.6296 32.2667 67.6296 31.9126C67.6296 31.5559 67.573 31.2997 67.4623 31.1454C67.3503 30.9925 67.1883 30.9147 66.9765 30.9147C66.8321 30.9147 66.712 30.9469 66.6148 31.0113C66.5203 31.0757 66.4475 31.1816 66.3935 31.3278C66.3422 31.4754 66.3179 31.6699 66.3179 31.9126C66.3179 32.1527 66.3422 32.3458 66.3935 32.492C66.4475 32.6396 66.5203 32.7442 66.6148 32.8086C66.712 32.873 66.8321 32.9051 66.9765 32.9051Z" fill="#0F172A"/>
<path d="M69.4101 33.1734C69.2265 33.1734 69.0619 33.1305 68.9188 33.0446C68.7744 32.9561 68.6597 32.818 68.5734 32.6315C68.4897 32.4424 68.4492 32.2023 68.4492 31.9126C68.4492 31.6202 68.4897 31.3801 68.5734 31.1937C68.6597 31.0046 68.7744 30.8665 68.9188 30.7806C69.0619 30.6948 69.2265 30.6519 69.4101 30.6519C69.5895 30.6519 69.7515 30.6948 69.8959 30.7806C70.0389 30.8665 70.1523 31.0046 70.236 31.1937C70.3223 31.3801 70.3655 31.6202 70.3655 31.9126C70.3655 32.2023 70.3223 32.4424 70.236 32.6315C70.1523 32.818 70.0389 32.9561 69.8959 33.0446C69.7515 33.1305 69.5895 33.1734 69.4101 33.1734ZM69.4101 32.9051C69.6219 32.9051 69.7839 32.8287 69.8959 32.6744C70.0065 32.5215 70.0632 32.2667 70.0632 31.9126C70.0632 31.5559 70.0065 31.2997 69.8959 31.1454C69.7839 30.9925 69.6219 30.9147 69.4101 30.9147C69.2657 30.9147 69.1456 30.9469 69.0484 31.0113C68.9539 31.0757 68.8811 31.1816 68.8271 31.3278C68.7758 31.4754 68.7515 31.6699 68.7515 31.9126C68.7515 32.1527 68.7758 32.3458 68.8271 32.492C68.8811 32.6396 68.9539 32.7442 69.0484 32.8086C69.1456 32.873 69.2657 32.9051 69.4101 32.9051Z" fill="#0F172A"/>
<path d="M71.6389 33.1734C71.4256 33.1734 71.2529 33.1251 71.1206 33.0285C70.987 32.9293 70.902 32.7952 70.8669 32.6262L71.0775 32.5296L71.1206 32.535C71.1598 32.661 71.2192 32.7549 71.2988 32.8193C71.3811 32.881 71.4945 32.9105 71.6389 32.9105C71.844 32.9105 72.0005 32.8273 72.1085 32.6584C72.2164 32.4867 72.2704 32.2238 72.2704 31.8697L72.2326 31.859C72.1638 31.9985 72.0774 32.1031 71.9735 32.1701C71.8683 32.2385 71.736 32.2721 71.5741 32.2721C71.4189 32.2721 71.2839 32.2399 71.1692 32.1755C71.0572 32.1084 70.9709 32.0132 70.9101 31.8912C70.848 31.7705 70.8184 31.6283 70.8184 31.4673C70.8184 31.3037 70.8507 31.1602 70.9155 31.0381C70.983 30.9134 71.0788 30.8182 71.2016 30.7538C71.3271 30.6867 71.4729 30.6519 71.6389 30.6519C71.9263 30.6519 72.1517 30.7484 72.3136 30.9416C72.4782 31.1347 72.5619 31.4486 72.5619 31.8804C72.5619 32.1742 72.5214 32.4169 72.4432 32.6101C72.3676 32.8032 72.261 32.9467 72.1247 33.0393C71.987 33.1291 71.8251 33.1734 71.6389 33.1734ZM71.6389 32.0199C71.7495 32.0199 71.8467 31.9985 71.9304 31.9555C72.0127 31.9126 72.0761 31.8509 72.1193 31.7678C72.1625 31.6819 72.1841 31.5827 72.1841 31.4673C72.1841 31.3493 72.1625 31.25 72.1193 31.1669C72.0761 31.0811 72.0127 31.0167 71.9304 30.9738C71.8467 30.9308 71.7495 30.9094 71.6389 30.9094C71.4769 30.9094 71.3487 30.9577 71.2556 31.0542C71.1652 31.1481 71.1206 31.2849 71.1206 31.4673C71.1206 31.6471 71.1652 31.7839 71.2556 31.8804C71.3487 31.9743 71.4769 32.0199 71.6389 32.0199Z" fill="#0F172A"/>
</svg>
