<svg width="14" height="16" viewBox="0 0 14 16" fill="none" xmlns="http://www.w3.org/2000/svg">
<path fill-rule="evenodd" clip-rule="evenodd" d="M10.3954 4.31508V3.18303C10.3954 1.93261 9.38176 0.918945 8.13134 0.918945H5.86725C4.61683 0.918945 3.60316 1.93261 3.60316 3.18303V4.31508H2.47112C1.2207 4.31508 0.207031 5.32874 0.207031 6.57916V9.97529C0.207031 11.2257 1.2207 12.2394 2.47112 12.2394H11.5275C12.7779 12.2394 13.7916 11.2257 13.7916 9.97529V6.57916C13.7916 5.32874 12.7779 4.31508 11.5275 4.31508H10.3954ZM8.13134 2.61701H5.86725C5.55464 2.61701 5.30123 2.87043 5.30123 3.18303V4.31508H8.69736V3.18303C8.69736 2.87043 8.44394 2.61701 8.13134 2.61701ZM8.13134 9.97529C8.13134 10.6005 7.6245 11.1073 6.99929 11.1073C6.37408 11.1073 5.86725 10.6005 5.86725 9.97529C5.86725 9.35008 6.37408 8.84325 6.99929 8.84325C7.6245 8.84325 8.13134 9.35008 8.13134 9.97529Z" fill="#0F172A"/>
<path d="M1.33907 13.178V13.3712C1.33907 14.6216 2.35274 15.6353 3.60316 15.6353H10.3954C11.6458 15.6353 12.6595 14.6216 12.6595 13.3712V13.178C12.3054 13.3031 11.9244 13.3712 11.5275 13.3712H2.47112C2.07418 13.3712 1.69315 13.3031 1.33907 13.178Z" fill="#0F172A"/>
</svg>
