<svg width="156" height="24" viewBox="0 0 156 24" fill="none" xmlns="http://www.w3.org/2000/svg">
<path d="M42.3371 19.4018L39.1758 7.785H42.4354L44.2354 15.59H44.3413L46.2169 7.785H49.4161L51.3219 15.5446H51.4203L53.19 7.785H56.4421L53.2883 19.4018H49.8774L47.8808 12.0959H47.7371L45.7405 19.4018H42.3371Z" fill="#0F172A"/>
<path d="M63.1183 19.6286C61.9435 19.6286 60.9276 19.3791 60.0704 18.8799C59.2183 18.3757 58.5604 17.6749 58.0965 16.7774C57.6326 15.8749 57.4007 14.8287 57.4007 13.6388C57.4007 12.4388 57.6326 11.39 58.0965 10.4925C58.5604 9.59003 59.2183 8.88919 60.0704 8.39003C60.9276 7.88584 61.9435 7.63374 63.1183 7.63374C64.2931 7.63374 65.3066 7.88584 66.1587 8.39003C67.0158 8.88919 67.6763 9.59003 68.1402 10.4925C68.604 11.39 68.836 12.4388 68.836 13.6388C68.836 14.8287 68.604 15.8749 68.1402 16.7774C67.6763 17.6749 67.0158 18.3757 66.1587 18.8799C65.3066 19.3791 64.2931 19.6286 63.1183 19.6286ZM63.1335 17.1329C63.6679 17.1329 64.1141 16.9816 64.4721 16.6791C64.8301 16.3715 65.0998 15.953 65.2813 15.4236C65.4679 14.8942 65.5612 14.2917 65.5612 13.6161C65.5612 12.9404 65.4679 12.3379 65.2813 11.8085C65.0998 11.2791 64.8301 10.8606 64.4721 10.5531C64.1141 10.2455 63.6679 10.0917 63.1335 10.0917C62.594 10.0917 62.1402 10.2455 61.7721 10.5531C61.4091 10.8606 61.1343 11.2791 60.9478 11.8085C60.7662 12.3379 60.6755 12.9404 60.6755 13.6161C60.6755 14.2917 60.7662 14.8942 60.9478 15.4236C61.1343 15.953 61.4091 16.3715 61.7721 16.6791C62.1402 16.9816 62.594 17.1329 63.1335 17.1329Z" fill="#0F172A"/>
<path d="M70.9309 19.4018V7.785H74.0544V9.81188H74.1754C74.3872 9.09087 74.7427 8.54634 75.2418 8.17827C75.741 7.80516 76.3158 7.61861 76.9662 7.61861C77.1275 7.61861 77.3015 7.62869 77.488 7.64886C77.6746 7.66903 77.8384 7.69676 77.9796 7.73205V10.5909C77.8284 10.5455 77.6191 10.5052 77.3519 10.4699C77.0847 10.4346 76.8401 10.4169 76.6183 10.4169C76.1443 10.4169 75.7208 10.5203 75.3477 10.727C74.9796 10.9287 74.6872 11.211 74.4704 11.5741C74.2586 11.9371 74.1527 12.3556 74.1527 12.8295V19.4018H70.9309Z" fill="#0F172A"/>
<path d="M82.5647 16.0589L82.5722 12.1942H83.0411L86.7621 7.785H90.4604L85.4613 13.6236H84.6974L82.5647 16.0589ZM79.6454 19.4018V3.91274H82.8672V19.4018H79.6454ZM86.9058 19.4018L83.4874 14.3421L85.6353 12.0656L90.6798 19.4018H86.9058Z" fill="#0F172A"/>
<path d="M92.631 19.4018V3.91274H98.0461C99.1251 3.91274 100.015 4.0993 100.716 4.4724C101.417 4.84047 101.939 5.33711 102.281 5.96231C102.624 6.58248 102.796 7.27071 102.796 8.02701C102.796 8.69255 102.677 9.24213 102.44 9.67574C102.208 10.1094 101.901 10.4522 101.518 10.7043C101.139 10.9564 100.728 11.143 100.285 11.264V11.4152C100.759 11.4455 101.235 11.6119 101.714 11.9144C102.193 12.2169 102.594 12.6505 102.917 13.2152C103.239 13.7799 103.401 14.4707 103.401 15.2875C103.401 16.064 103.224 16.7623 102.871 17.3824C102.518 18.0026 101.961 18.4942 101.2 18.8572C100.439 19.2202 99.4478 19.4018 98.2276 19.4018H92.631ZM94.5066 17.7379H98.2276C99.4528 17.7379 100.323 17.5009 100.837 17.027C101.356 16.548 101.616 15.9682 101.616 15.2875C101.616 14.7631 101.482 14.2791 101.215 13.8354C100.948 13.3867 100.567 13.0287 100.073 12.7614C99.5789 12.4892 98.994 12.353 98.3184 12.353H94.5066V17.7379ZM94.5066 10.7194H97.9856C98.5503 10.7194 99.0596 10.6085 99.5134 10.3867C99.9722 10.1648 100.335 9.85221 100.602 9.44885C100.875 9.04549 101.011 8.57155 101.011 8.02701C101.011 7.34634 100.774 6.76903 100.3 6.29509C99.826 5.8161 99.0747 5.5766 98.0461 5.5766H94.5066V10.7194Z" fill="#0F172A"/>
<path d="M106.241 19.4018V7.785H107.965V9.53961H108.086C108.298 8.96482 108.681 8.49844 109.236 8.14046C109.79 7.78247 110.415 7.60348 111.111 7.60348C111.242 7.60348 111.406 7.606 111.603 7.61105C111.799 7.61609 111.948 7.62365 112.049 7.63374V9.44885C111.989 9.43373 111.85 9.41104 111.633 9.38079C111.421 9.34549 111.197 9.32785 110.96 9.32785C110.395 9.32785 109.891 9.44633 109.447 9.68331C109.009 9.91524 108.661 10.2379 108.404 10.6514C108.152 11.0598 108.025 11.5262 108.025 12.0505V19.4018H106.241Z" fill="#0F172A"/>
<path d="M114.165 19.4018V7.785H115.95V19.4018H114.165ZM115.072 5.84887C114.724 5.84887 114.424 5.73038 114.172 5.49341C113.925 5.25643 113.802 4.97156 113.802 4.63879C113.802 4.30602 113.925 4.02115 114.172 3.78417C114.424 3.5472 114.724 3.42871 115.072 3.42871C115.42 3.42871 115.718 3.5472 115.965 3.78417C116.217 4.02115 116.343 4.30602 116.343 4.63879C116.343 4.97156 116.217 5.25643 115.965 5.49341C115.718 5.73038 115.42 5.84887 115.072 5.84887Z" fill="#0F172A"/>
<path d="M123.605 19.6438C122.637 19.6438 121.783 19.3992 121.041 18.9102C120.3 18.416 119.72 17.7203 119.302 16.8228C118.883 15.9203 118.674 14.8539 118.674 13.6236C118.674 12.4035 118.883 11.3446 119.302 10.4472C119.72 9.54969 120.303 8.85642 121.049 8.36735C121.795 7.87827 122.657 7.63374 123.636 7.63374C124.392 7.63374 124.989 7.75979 125.428 8.01189C125.872 8.25894 126.209 8.5413 126.441 8.85894C126.678 9.17154 126.862 9.42869 126.993 9.63037H127.145V3.91274H128.93V19.4018H127.205V17.6169H126.993C126.862 17.8287 126.676 18.0959 126.434 18.4186C126.192 18.7362 125.846 19.0211 125.398 19.2732C124.949 19.5202 124.351 19.6438 123.605 19.6438ZM123.847 18.0404C124.563 18.0404 125.168 17.8539 125.662 17.4808C126.157 17.1026 126.532 16.5808 126.789 15.9152C127.046 15.2446 127.175 14.4707 127.175 13.5934C127.175 12.7262 127.049 11.9673 126.797 11.3169C126.545 10.6615 126.172 10.1522 125.678 9.78919C125.183 9.42112 124.573 9.23709 123.847 9.23709C123.091 9.23709 122.461 9.43121 121.957 9.81944C121.457 10.2026 121.082 10.7245 120.83 11.385C120.583 12.0404 120.459 12.7766 120.459 13.5934C120.459 14.4203 120.585 15.1715 120.837 15.8471C121.094 16.5177 121.473 17.0522 121.972 17.4505C122.476 17.8438 123.101 18.0404 123.847 18.0404Z" fill="#0F172A"/>
<path d="M137.135 24.0001C136.273 24.0001 135.532 23.8891 134.912 23.6673C134.292 23.4505 133.775 23.1631 133.362 22.8051C132.953 22.4522 132.628 22.074 132.386 21.6707L133.808 20.6723C133.969 20.8841 134.173 21.1261 134.42 21.3984C134.667 21.6757 135.005 21.9152 135.434 22.1169C135.867 22.3236 136.435 22.427 137.135 22.427C138.073 22.427 138.847 22.2001 139.457 21.7463C140.067 21.2925 140.372 20.5816 140.372 19.6135V17.2539H140.221C140.09 17.4656 139.904 17.7278 139.662 18.0404C139.425 18.348 139.082 18.6228 138.633 18.8648C138.189 19.1018 137.589 19.2202 136.833 19.2202C135.895 19.2202 135.053 18.9984 134.307 18.5547C133.566 18.111 132.978 17.4656 132.545 16.6186C132.116 15.7715 131.902 14.743 131.902 13.5329C131.902 12.343 132.111 11.3068 132.53 10.4245C132.948 9.53709 133.53 8.85138 134.277 8.36735C135.023 7.87827 135.885 7.63374 136.863 7.63374C137.619 7.63374 138.219 7.75979 138.663 8.01189C139.112 8.25894 139.455 8.5413 139.692 8.85894C139.934 9.17154 140.12 9.42869 140.251 9.63037H140.433V7.785H142.157V19.7345C142.157 20.7328 141.93 21.5446 141.477 22.1698C141.028 22.8001 140.423 23.2614 139.662 23.5538C138.905 23.8513 138.063 24.0001 137.135 24.0001ZM137.075 17.6169C137.791 17.6169 138.396 17.453 138.89 17.1253C139.384 16.7976 139.76 16.3261 140.017 15.711C140.274 15.0959 140.403 14.3598 140.403 13.5026C140.403 12.6656 140.277 11.927 140.025 11.2867C139.772 10.6463 139.399 10.1446 138.905 9.78163C138.411 9.4186 137.801 9.23709 137.075 9.23709C136.319 9.23709 135.688 9.42869 135.184 9.81188C134.685 10.1951 134.309 10.7094 134.057 11.3547C133.81 12.0001 133.687 12.7161 133.687 13.5026C133.687 14.3093 133.813 15.0228 134.065 15.6429C134.322 16.2581 134.7 16.7421 135.199 17.095C135.704 17.4429 136.329 17.6169 137.075 17.6169Z" fill="#0F172A"/>
<path d="M150.295 19.6438C149.176 19.6438 148.21 19.3967 147.398 18.9026C146.592 18.4034 145.969 17.7076 145.53 16.8152C145.097 15.9177 144.88 14.874 144.88 13.6841C144.88 12.4942 145.097 11.4455 145.53 10.5379C145.969 9.62532 146.579 8.9144 147.361 8.40516C148.147 7.89088 149.065 7.63374 150.114 7.63374C150.719 7.63374 151.316 7.73458 151.906 7.93625C152.496 8.13793 153.033 8.46566 153.517 8.91945C154.001 9.36818 154.387 9.96314 154.674 10.7043C154.961 11.4455 155.105 12.3581 155.105 13.4421V14.1984H146.151V12.6556H153.29C153.29 12.0001 153.159 11.4152 152.897 10.9009C152.64 10.3867 152.272 9.98078 151.793 9.68331C151.319 9.38583 150.759 9.23709 150.114 9.23709C149.403 9.23709 148.788 9.41356 148.268 9.7665C147.754 10.1144 147.358 10.5682 147.081 11.1278C146.803 11.6875 146.665 12.2875 146.665 12.9278V13.9564C146.665 14.8337 146.816 15.5774 147.119 16.1875C147.426 16.7925 147.852 17.2539 148.397 17.5715C148.941 17.8841 149.574 18.0404 150.295 18.0404C150.764 18.0404 151.188 17.9749 151.566 17.8438C151.949 17.7076 152.279 17.506 152.556 17.2387C152.834 16.9665 153.048 16.6287 153.199 16.2253L154.924 16.7093C154.742 17.2942 154.437 17.8085 154.009 18.2522C153.58 18.6908 153.051 19.0337 152.42 19.2807C151.79 19.5228 151.082 19.6438 150.295 19.6438Z" fill="#0F172A"/>
<path fill-rule="evenodd" clip-rule="evenodd" d="M3.74139 19.398V19.2669V0H6.56508V5.33657L24.9049 5.33657V8.16016H21.3621L26.315 15.2334V0H29.1387V5.33657H33.0513V8.16016L29.1387 8.16016V19.398H26.1807C25.9322 19.398 25.6992 19.2768 25.5566 19.0731L17.915 8.16016H14.9658L7.32419 19.0731C7.18161 19.2768 6.94866 19.398 6.70008 19.398H3.74139ZM11.5187 8.16016L6.56508 15.2344V8.16016H11.5187Z" fill="#0F172A"/>
<path d="M0 8.16016L1.23427e-07 5.33657H2.32954V8.16016H0Z" fill="#0F172A"/>
</svg>
