<svg width="10" height="14" viewBox="0 0 10 14" fill="none" xmlns="http://www.w3.org/2000/svg">
<path d="M3.24438 7.05044L2.72291 7.42579C2.65733 7.47296 2.61318 7.54424 2.60016 7.62397C2.58715 7.70369 2.60634 7.78532 2.65351 7.8509C2.70068 7.91647 2.77197 7.96063 2.85169 7.97364C2.93141 7.98665 3.01304 7.96747 3.07862 7.9203L3.6001 7.54495C3.63257 7.52159 3.66012 7.49207 3.68118 7.45807C3.70224 7.42406 3.7164 7.38624 3.72284 7.34676C3.72929 7.30729 3.72789 7.26693 3.71874 7.22799C3.70959 7.18906 3.69285 7.1523 3.6695 7.11983C3.64614 7.08736 3.61661 7.05981 3.58261 7.03875C3.5486 7.01769 3.51078 7.00354 3.47131 6.99709C3.43183 6.99065 3.39148 6.99204 3.35254 7.0012C3.3136 7.01035 3.27685 7.02708 3.24438 7.05044Z" fill="white"/>
<path d="M6.52393 7.42579L6.00245 7.05044C5.96998 7.02708 5.93323 7.01035 5.89429 7.0012C5.85536 6.99204 5.815 6.99065 5.77552 6.99709C5.73605 7.00354 5.69823 7.01769 5.66422 7.03875C5.63022 7.05981 5.6007 7.08736 5.57734 7.11983C5.55398 7.1523 5.53725 7.18906 5.52809 7.22799C5.51894 7.26693 5.51755 7.30729 5.52399 7.34676C5.53043 7.38624 5.54459 7.42406 5.56565 7.45807C5.58671 7.49207 5.61426 7.52159 5.64673 7.54495L6.16821 7.9203C6.23378 7.96747 6.31541 7.98665 6.39514 7.97364C6.47486 7.96063 6.54615 7.91647 6.59332 7.8509C6.64049 7.78532 6.65968 7.70369 6.64666 7.62397C6.63365 7.54424 6.5895 7.47296 6.52393 7.42579Z" fill="white"/>
<path d="M8.87097 2.9052C8.8715 2.67242 8.82586 2.44184 8.73669 2.22681C8.64752 2.01178 8.51659 1.81657 8.35147 1.65247L7.31189 0.610909C7.28365 0.582568 7.25009 0.56008 7.21314 0.544735C7.17619 0.529389 7.13657 0.521488 7.09656 0.521484C7.01579 0.52151 6.93814 0.553603 6.88102 0.61071L5.83946 1.65227C5.64851 1.84374 5.50429 2.07665 5.41799 2.33292C4.51361 2.16926 3.58077 2.28816 2.74636 2.67344C1.91195 3.05872 1.21647 3.69167 0.754519 4.48621C0.292572 5.28075 0.0865846 6.1983 0.164575 7.11405C0.242565 8.02981 0.600748 8.89931 1.1904 9.60429C1.21856 9.6377 1.25362 9.66461 1.29318 9.68318C1.51645 10.3672 1.94787 10.9645 2.52713 11.3914C3.1064 11.8183 3.80457 12.0536 4.52408 12.0643L4.60915 12.0647L4.69521 12.0643C4.7852 12.0635 4.87356 12.0559 4.96182 12.0481L5.12199 12.4131C4.99024 12.5483 4.90934 12.7249 4.893 12.913C4.87666 13.1011 4.92589 13.289 5.03235 13.4449C5.1388 13.6008 5.29592 13.715 5.47703 13.7683C5.65815 13.8215 5.8521 13.8104 6.02599 13.7369C6.19987 13.6634 6.34296 13.5321 6.43099 13.3651C6.51902 13.1981 6.54655 13.0057 6.50892 12.8208C6.47129 12.6358 6.37081 12.4695 6.22453 12.3502C6.07826 12.2308 5.8952 12.1658 5.70642 12.1661C5.6974 12.1661 5.68904 12.1684 5.68008 12.1687L5.57747 11.9349C6.11591 11.782 6.60934 11.5011 7.01562 11.116C7.42189 10.731 7.72893 10.2534 7.91051 9.7239C7.95518 9.7059 7.99488 9.67747 8.0263 9.64097C8.71837 8.83068 9.09854 7.8 9.09839 6.73438C9.10102 5.82877 8.82525 4.94423 8.30844 4.20055C8.32253 4.18732 8.33739 4.17599 8.35127 4.1621C8.5167 3.99737 8.64781 3.80146 8.73702 3.58571C8.82623 3.36996 8.87175 3.13866 8.87097 2.9052ZM5.94178 2.73667C5.9778 2.48903 6.09299 2.25969 6.27013 2.08294L7.09616 1.2569L7.92061 2.08294C8.13911 2.3016 8.26185 2.59807 8.26185 2.90719C8.26185 3.21631 8.13911 3.51278 7.92061 3.73144C7.86104 3.79137 7.79477 3.84426 7.72313 3.88907C7.53681 4.01081 7.31893 4.07533 7.09636 4.07466C6.92868 4.07456 6.76299 4.03835 6.61055 3.96849C6.45811 3.89863 6.32251 3.79676 6.21296 3.66981C6.10341 3.54286 6.02249 3.39381 5.97569 3.23279C5.9289 3.07177 5.91733 2.90256 5.94178 2.73667ZM5.70642 12.7752C5.74791 12.7752 5.78847 12.7875 5.82297 12.8105C5.85747 12.8336 5.88436 12.8663 5.90024 12.9047C5.91611 12.943 5.92027 12.9852 5.91217 13.0259C5.90408 13.0666 5.8841 13.104 5.85476 13.1333C5.82542 13.1626 5.78804 13.1826 5.74735 13.1907C5.70666 13.1988 5.66448 13.1946 5.62614 13.1788C5.58781 13.1629 5.55505 13.136 5.532 13.1015C5.50895 13.067 5.49664 13.0264 5.49664 12.985C5.49673 12.9293 5.51886 12.876 5.55819 12.8367C5.59751 12.7974 5.65082 12.7753 5.70642 12.7752ZM7.49035 8.60733C7.48945 9.24283 7.27648 9.85984 6.88519 10.3606C6.4939 10.8613 5.94668 11.2172 5.33026 11.3717L4.73831 10.0229C4.96953 10.0531 5.18945 10.1409 5.37788 10.2782C5.41084 10.3011 5.44799 10.3173 5.48721 10.3258C5.52643 10.3342 5.56693 10.3349 5.6064 10.3277C5.64587 10.3205 5.68353 10.3055 5.7172 10.2837C5.75088 10.2619 5.77991 10.2336 5.80264 10.2006C5.82536 10.1675 5.84133 10.1303 5.84962 10.091C5.85791 10.0517 5.85836 10.0112 5.85095 9.9718C5.84354 9.93237 5.82841 9.89479 5.80643 9.86122C5.78445 9.82765 5.75605 9.79876 5.72287 9.77619C5.40684 9.5356 5.0206 9.40531 4.62341 9.40531C4.22621 9.40531 3.83998 9.5356 3.52395 9.77619C3.45757 9.82203 3.41208 9.89232 3.39747 9.97164C3.38285 10.051 3.4003 10.1329 3.44598 10.1993C3.49167 10.2658 3.56186 10.3115 3.64115 10.3263C3.72045 10.341 3.80237 10.3238 3.86895 10.2782C3.94923 10.2235 4.03392 10.1756 4.12216 10.135L4.70128 11.4545C4.69749 11.4546 4.69383 11.4552 4.69003 11.4552L4.60913 11.4556L4.52923 11.4552C3.78202 11.4431 3.06954 11.1377 2.54551 10.6049C2.02147 10.0721 1.7279 9.35464 1.72813 8.60733V6.39176C1.72615 6.24517 1.76324 6.1007 1.83558 5.97319C1.90792 5.84569 2.01291 5.73974 2.13976 5.66625C2.54541 5.42258 3.00781 5.28941 3.48092 5.28C3.83242 5.28271 4.17921 5.36109 4.4977 5.50981C4.7895 5.64588 5.10649 5.71954 5.42839 5.72606C5.75029 5.73258 6.07001 5.67182 6.36707 5.54768C6.46914 5.4936 6.5818 5.46247 6.69715 5.45648C6.81251 5.45048 6.92778 5.46977 7.03491 5.51298C7.17513 5.58037 7.2928 5.68699 7.37364 5.81992C7.45448 5.95285 7.49502 6.10637 7.49036 6.26188L7.49035 8.60733ZM8.48927 6.73438C8.48875 7.3196 8.35546 7.89708 8.09946 8.42333V6.26188C8.10926 6.02448 8.05681 5.78864 7.94733 5.57777C7.83785 5.36689 7.67513 5.1883 7.47533 5.05972C7.27552 4.93114 7.04557 4.85703 6.80828 4.84475C6.57099 4.83247 6.33462 4.88245 6.12261 4.98972C5.90413 5.08112 5.66879 5.12526 5.43204 5.11925C5.19528 5.11323 4.96248 5.0572 4.74893 4.95482C3.7952 4.52416 2.81689 4.58463 1.84116 5.13526C1.62013 5.26179 1.43676 5.44486 1.30985 5.66567C1.18295 5.88648 1.11708 6.13708 1.11902 6.39176V8.36744C0.819978 7.72429 0.703605 7.01128 0.782633 6.30643C0.86166 5.60157 1.13304 4.93204 1.56709 4.37108C2.00113 3.81013 2.58111 3.37937 3.24356 3.12594C3.90601 2.87252 4.6254 2.80619 5.32302 2.93421C5.32904 3.40048 5.51855 3.84558 5.85049 4.17308C6.18243 4.50057 6.63006 4.68405 7.09636 4.68377C7.3385 4.68345 7.57796 4.63304 7.79969 4.53572C8.25066 5.18002 8.4915 5.94794 8.48927 6.73438Z" fill="white"/>
</svg>
