<svg width="24" height="24" viewBox="0 0 24 24" fill="none" xmlns="http://www.w3.org/2000/svg">
<g opacity="0.5">
<path fill-rule="evenodd" clip-rule="evenodd" d="M11.9372 0.21582H12.0609C14.5486 0.21581 16.4981 0.215799 18.0193 0.420309C19.5762 0.629637 20.8048 1.06646 21.7692 2.03077C22.7335 2.99509 23.1702 4.22366 23.3796 5.78062C23.5841 7.30173 23.5841 9.25129 23.5841 11.739V11.8627C23.5841 14.3504 23.5841 16.2999 23.3796 17.821C23.1702 19.378 22.7335 20.6066 21.7692 21.5709C20.8048 22.5352 19.5762 22.972 18.0193 23.1814C16.4981 23.3858 14.5486 23.3858 12.0609 23.3858H11.9372C9.44953 23.3858 7.49998 23.3858 5.97886 23.1814C4.4219 22.972 3.19333 22.5352 2.22902 21.5709C1.2647 20.6066 0.827879 19.378 0.618551 17.821C0.414041 16.2999 0.414052 14.3504 0.414063 11.8627V11.739C0.414052 9.25129 0.414041 7.30173 0.618551 5.78062C0.827879 4.22366 1.2647 2.99509 2.22902 2.03077C3.19333 1.06646 4.4219 0.629637 5.97886 0.420309C7.49998 0.215799 9.44953 0.21581 11.9372 0.21582ZM6.19426 2.0224C4.81655 2.20763 3.98596 2.55991 3.37206 3.17382C2.75816 3.78772 2.40587 4.6183 2.22064 5.99601C2.03229 7.39697 2.03057 9.23786 2.03057 11.8008C2.03057 14.3637 2.03229 16.2046 2.22064 17.6056C2.40587 18.9833 2.75816 19.8139 3.37206 20.4278C3.98596 21.0418 4.81655 21.3941 6.19426 21.5792C7.59521 21.7676 9.4361 21.7693 11.9991 21.7693C14.562 21.7693 16.4029 21.7676 17.8038 21.5792C19.1815 21.3941 20.0121 21.0418 20.6261 20.4278C21.24 19.8139 21.5923 18.9833 21.7775 17.6056C21.9658 16.2046 21.9676 14.3637 21.9676 11.8008C21.9676 9.23786 21.9658 7.39697 21.7775 5.99601C21.5923 4.6183 21.24 3.78772 20.6261 3.17382C20.0121 2.55991 19.1815 2.20763 17.8038 2.0224C16.4029 1.83405 14.562 1.83233 11.9991 1.83233C9.4361 1.83233 7.59521 1.83405 6.19426 2.0224ZM14.115 8.5678C14.115 8.12141 14.4769 7.75954 14.9233 7.75954H18.4651C18.9115 7.75954 19.2734 8.12141 19.2734 8.5678C19.2734 9.01418 18.9115 9.37605 18.4651 9.37605H14.9233C14.4769 9.37605 14.115 9.01418 14.115 8.5678ZM14.115 16.1115C14.115 15.6651 14.4769 15.3033 14.9233 15.3033H18.4651C18.9115 15.3033 19.2734 15.6651 19.2734 16.1115C19.2734 16.5579 18.9115 16.9198 18.4651 16.9198H14.9233C14.4769 16.9198 14.115 16.5579 14.115 16.1115Z" fill="#0F172A"/>
<path d="M10.4232 11.8005C10.4232 12.6649 9.72251 13.3656 8.85815 13.3656C7.99379 13.3656 7.29313 12.6649 7.29313 11.8005C7.29313 10.9362 7.99379 10.2355 8.85815 10.2355C9.72251 10.2355 10.4232 10.9362 10.4232 11.8005Z" stroke="#0F172A" stroke-width="1.04335" stroke-linecap="round" stroke-linejoin="round"/>
<path d="M9.33006 7.1368C9.2227 7.10547 9.1012 7.10547 8.85815 7.10547C8.6151 7.10547 8.49361 7.10547 8.38625 7.1368C8.22912 7.18265 8.0903 7.27662 7.98936 7.40549C7.92039 7.49353 7.87527 7.60636 7.78502 7.83201C7.65527 8.15639 7.29518 8.32343 6.96373 8.21298L6.66597 8.11377C6.45475 8.04336 6.34913 8.00815 6.24559 8.00212C6.09348 7.99326 5.9421 8.029 5.81002 8.10494C5.7201 8.15665 5.64138 8.23537 5.48395 8.3928C5.31662 8.56013 5.23296 8.64379 5.17981 8.73929C5.10172 8.8796 5.06869 9.04054 5.08519 9.20026C5.09642 9.30897 5.14036 9.41883 5.22825 9.63854C5.36588 9.98262 5.23348 10.3757 4.91572 10.5664L4.77095 10.6533C4.54929 10.7863 4.43846 10.8528 4.35795 10.9444C4.28671 11.0254 4.233 11.1203 4.20017 11.223C4.16309 11.3392 4.16309 11.4697 4.16309 11.7308C4.16309 12.0399 4.16309 12.1945 4.21245 12.3268C4.25606 12.4437 4.32701 12.5485 4.41935 12.6324C4.52387 12.7273 4.66595 12.7842 4.95011 12.8979C5.24052 13.014 5.39004 13.3364 5.29113 13.6331L5.17889 13.9699C5.10115 14.2031 5.06228 14.3197 5.05875 14.4343C5.0545 14.572 5.0867 14.7085 5.15211 14.8297C5.20651 14.9307 5.29344 15.0176 5.46727 15.1914C5.64111 15.3652 5.72803 15.4521 5.82892 15.5066C5.95024 15.572 6.08667 15.6042 6.22443 15.5999C6.339 15.5964 6.45561 15.5575 6.68884 15.4798L6.96376 15.3881C7.29518 15.2777 7.65528 15.4447 7.78502 15.7691C7.87527 15.9947 7.92039 16.1075 7.98936 16.1956C8.0903 16.3244 8.22912 16.4184 8.38625 16.4643C8.49361 16.4956 8.6151 16.4956 8.85815 16.4956C9.1012 16.4956 9.2227 16.4956 9.33006 16.4643C9.48719 16.4184 9.626 16.3244 9.72695 16.1956C9.79591 16.1075 9.84104 15.9947 9.93129 15.7691C10.061 15.4447 10.4211 15.2777 10.7525 15.3882L11.0272 15.4799C11.2605 15.5576 11.3771 15.5964 11.4917 15.6C11.6294 15.6042 11.7659 15.572 11.8871 15.5066C11.988 15.4522 12.075 15.3653 12.2488 15.1915C12.4226 15.0176 12.5096 14.9307 12.564 14.8298C12.6294 14.7085 12.6616 14.572 12.6573 14.4343C12.6538 14.3198 12.6149 14.2031 12.5372 13.9699L12.425 13.6334C12.3261 13.3366 12.4756 13.0141 12.7662 12.8979C13.0503 12.7842 13.1924 12.7273 13.297 12.6324C13.3893 12.5485 13.4603 12.4437 13.5039 12.3268C13.5532 12.1945 13.5532 12.0399 13.5532 11.7308C13.5532 11.4697 13.5532 11.3392 13.5161 11.223C13.4833 11.1203 13.4296 11.0254 13.3584 10.9444C13.2778 10.8528 13.167 10.7863 12.9454 10.6533L12.8004 10.5663C12.4826 10.3757 12.3502 9.98257 12.4879 9.6385C12.5757 9.4188 12.6197 9.30893 12.6309 9.20021C12.6474 9.04049 12.6144 8.87956 12.5363 8.73925C12.4831 8.64376 12.3995 8.56009 12.2321 8.39276C12.0747 8.23533 11.996 8.15661 11.9061 8.10491C11.774 8.02896 11.6226 7.99322 11.4705 8.00208C11.3669 8.00812 11.2613 8.04332 11.0501 8.11372L10.7526 8.21291C10.4211 8.32339 10.061 8.15638 9.93129 7.83201C9.84104 7.60636 9.79591 7.49353 9.72695 7.40549C9.626 7.27662 9.48719 7.18265 9.33006 7.1368Z" stroke="#0F172A" stroke-width="1.04335" stroke-linecap="round" stroke-linejoin="round"/>
</g>
</svg>
