<svg width="29" height="19" viewBox="0 0 29 19" fill="none" xmlns="http://www.w3.org/2000/svg">
<path opacity="0.5" d="M28.2159 6.38401L23.9872 1.13638C23.4759 0.502105 22.7483 0.104892 21.9387 0.0178836C21.1336 -0.0691249 20.3234 0.172355 19.6973 0.675491L18.6229 1.54179C18.0233 2.02475 17.6564 2.68993 17.5341 3.39482H11.7896C11.6446 3.39482 11.5021 3.40743 11.364 3.43076C11.248 2.71262 10.8779 2.03295 10.2682 1.54179L9.1926 0.674861C8.56778 0.171725 7.76075 -0.0691248 6.95308 0.0172532C6.14226 0.104262 5.4153 0.501474 4.90271 1.13638L0.67586 6.38274C0.163897 7.01702 -0.0700168 7.81271 0.0182526 8.6229C0.105261 9.43372 0.501843 10.16 1.13675 10.6726L2.21175 11.5389C2.75272 11.974 3.43176 12.2142 4.12467 12.2142C4.45947 12.2142 4.78607 12.16 5.09438 12.0566L12.9239 18.3168C13.4264 18.7008 14.0518 18.9126 14.6836 18.9126C14.7681 18.9126 14.8526 18.9088 14.9358 18.9012C15.5007 18.8508 16.0461 18.6339 16.4906 18.2777L24.1404 12.1575C24.3434 12.1997 24.5528 12.2306 24.7652 12.2306C25.4581 12.2306 26.1385 11.9809 26.6788 11.5465L27.7538 10.6758C28.3881 10.1638 28.7859 9.43498 28.871 8.62479C28.9612 7.81586 28.7279 7.01828 28.2159 6.38401ZM2.341 9.18026C2.10583 8.99048 1.95829 8.71999 1.92613 8.41925C1.89335 8.1185 1.98036 7.82343 2.16951 7.58762L6.39635 2.34189C6.58676 2.10609 6.85662 1.95918 7.15736 1.92577C7.19771 1.92135 7.2387 1.91946 7.27842 1.91946C7.53629 1.91946 7.78912 2.00899 7.98836 2.16977L9.06398 3.03607C9.5501 3.42824 9.62765 4.14259 9.23485 4.6287L5.00737 9.87443C4.62844 10.3454 3.88887 10.4267 3.416 10.0459L2.341 9.18026ZM21.2811 11.9847C21.0743 12.1505 20.7805 12.1499 20.5743 11.9828L16.0411 8.31143C15.6867 8.02519 15.2441 7.86945 14.7895 7.87198L11.7903 7.88711C11.4157 7.88711 11.1156 7.57438 11.1156 7.19987V6.00129C11.1156 5.62678 11.4164 5.33108 11.7903 5.33108H17.2926C17.4628 5.33108 17.6223 5.40737 17.7295 5.53851L21.9507 10.7199C22.0446 10.8372 22.09 10.9866 22.0736 11.1354C22.0585 11.2849 21.9822 11.4217 21.8662 11.5162L21.2811 11.9847ZM26.9669 8.41988C26.9335 8.72062 26.7872 8.99048 26.5514 9.18026L25.4764 10.0466C25.2728 10.2105 25.0282 10.2969 24.7678 10.2969C24.4216 10.2969 24.0994 10.1424 23.8838 9.87506L19.657 4.6287C19.266 4.14259 19.3417 3.42824 19.8284 3.03607L20.9022 2.1704C21.1033 2.00899 21.3555 1.91946 21.6134 1.91946C21.6525 1.91946 21.6947 1.92135 21.7344 1.92577C22.0352 1.95855 22.3044 2.10609 22.4942 2.34126L26.7217 7.58825C26.9127 7.82343 26.9985 8.1185 26.9669 8.41988Z" fill="#0F172A"/>
</svg>
