<svg width="25" height="24" viewBox="0 0 25 24" fill="none" xmlns="http://www.w3.org/2000/svg">
<path fill-rule="evenodd" clip-rule="evenodd" d="M12.4384 0.21582H12.5622C15.0501 0.21581 16.9999 0.215799 18.5212 0.420331C20.0782 0.629681 21.307 1.06655 22.2714 2.03097C23.2358 2.99539 23.6727 4.22409 23.8821 5.78122C24.0865 7.30249 24.0865 9.25226 24.0865 11.7402V11.8639C24.0865 14.3519 24.0865 16.3016 23.8821 17.8229C23.6727 19.38 23.2358 20.6088 22.2714 21.5732C21.307 22.5376 20.0782 22.9744 18.5212 23.1838C16.9999 23.3883 15.0501 23.3883 12.5622 23.3883H12.4384C9.9505 23.3883 8.00074 23.3883 6.47946 23.1838C4.92233 22.9744 3.69363 22.5376 2.72921 21.5732C1.76479 20.6088 1.32792 19.38 1.11857 17.8229C0.914041 16.3016 0.914052 14.3519 0.914063 11.8639V11.7402C0.914052 9.25226 0.914041 7.30249 1.11857 5.78122C1.32792 4.22409 1.76479 2.99539 2.72921 2.03097C3.69363 1.06655 4.92233 0.629681 6.47946 0.420331C8.00074 0.215799 9.9505 0.21581 12.4384 0.21582ZM6.69488 2.0226C5.31702 2.20785 4.48634 2.56016 3.87238 3.17414C3.25841 3.7881 2.90609 4.61878 2.72084 5.99663C2.53246 7.39774 2.53075 9.23883 2.53075 11.8021C2.53075 14.3653 2.53246 16.2063 2.72084 17.6075C2.90609 18.9853 3.25841 19.816 3.87238 20.43C4.48634 21.044 5.31702 21.3963 6.69488 21.5815C8.09598 21.7699 9.93707 21.7716 12.5003 21.7716C15.0635 21.7716 16.9046 21.7699 18.3057 21.5815C19.6836 21.3963 20.5142 21.044 21.1282 20.43C21.7422 19.816 22.0946 18.9853 22.2797 17.6075C22.4681 16.2063 22.4699 14.3653 22.4699 11.8021C22.4699 9.23883 22.4681 7.39774 22.2797 5.99663C22.0946 4.61878 21.7422 3.7881 21.1282 3.17414C20.5142 2.56016 19.6836 2.20785 18.3057 2.0226C16.9046 1.83422 15.0635 1.83251 12.5003 1.83251C9.93707 1.83251 8.09598 1.83422 6.69488 2.0226ZM10.9022 5.82777C11.2255 6.13565 11.238 6.64731 10.9301 6.97059L7.85068 10.2039C7.6981 10.3642 7.48656 10.4548 7.26533 10.4548C7.0441 10.4548 6.83254 10.3642 6.67997 10.2039L5.44822 8.91061C5.14033 8.58733 5.15281 8.07567 5.47609 7.76779C5.79937 7.45989 6.31103 7.47238 6.61891 7.79566L7.26533 8.47439L9.75938 5.85564C10.0673 5.53235 10.5789 5.51987 10.9022 5.82777ZM12.7698 8.56869C12.7698 8.12226 13.1317 7.76035 13.5781 7.76035H18.967C19.4135 7.76035 19.7754 8.12226 19.7754 8.56869C19.7754 9.01512 19.4135 9.37704 18.967 9.37704H13.5781C13.1317 9.37704 12.7698 9.01512 12.7698 8.56869Z" fill="white"/>
<g opacity="0.5">
<path d="M10.9304 14.5152C11.2384 14.192 11.2259 13.6803 10.9025 13.3724C10.5793 13.0645 10.0676 13.077 9.75974 13.4003L7.26569 16.019L6.61928 15.3404C6.3114 15.017 5.79974 15.0045 5.47645 15.3124C5.15317 15.6204 5.14069 16.132 5.44858 16.4552L6.68034 17.7486C6.83291 17.9088 7.04447 17.9995 7.26569 17.9995C7.48692 17.9995 7.69847 17.9088 7.85104 17.7486L10.9304 14.5152Z" fill="white"/>
<path d="M13.5785 15.305C13.132 15.305 12.7701 15.6669 12.7701 16.1134C12.7701 16.5598 13.132 16.9217 13.5785 16.9217H18.9674C19.4138 16.9217 19.7758 16.5598 19.7758 16.1134C19.7758 15.6669 19.4138 15.305 18.9674 15.305H13.5785Z" fill="white"/>
</g>
</svg>
