<svg width="15" height="13" viewBox="0 0 15 13" fill="none" xmlns="http://www.w3.org/2000/svg">
<path d="M5.92158 2.8781C5.05495 3.30811 4.42041 4.14536 4.25655 5.14321C4.06655 5.19596 3.86655 5.22412 3.66012 5.22412C2.41095 5.22412 1.39827 4.19305 1.39827 2.92114C1.39827 1.64924 2.41095 0.618164 3.66012 0.618164C4.89516 0.618164 5.89901 1.62607 5.92158 2.8781Z" fill="#0F172A"/>
<path d="M10.2476 5.15706C10.0843 4.13416 9.42671 3.27832 8.53071 2.85408C8.56558 1.6132 9.56448 0.618164 10.7916 0.618164C12.0408 0.618164 13.0535 1.64924 13.0535 2.92114C13.0535 4.19305 12.0408 5.22412 10.7916 5.22412C10.6041 5.22412 10.4218 5.20088 10.2476 5.15706Z" fill="#0F172A"/>
<path d="M4.24159 6.06613C4.15145 6.10399 4.07911 6.12558 4.0053 6.13788C3.9074 6.15418 3.80691 6.15418 3.65879 6.15418C3.51068 6.15418 3.41019 6.15418 3.31229 6.13788C3.10577 6.10347 2.91101 5.99645 2.30526 5.66356L2.27661 5.64783C0.894432 5.11678 0.142723 6.83344 0.0942172 8.35249C0.0554227 9.56774 0.967215 9.97035 1.42789 10.0197H3.04721C3.15378 9.43092 3.35594 8.8425 3.67267 8.36521C3.91299 8.00306 4.25077 7.65907 4.70855 7.4695C4.73072 7.46032 4.75293 7.45159 4.7753 7.4433C4.49614 7.04398 4.30805 6.5744 4.24159 6.06613Z" fill="#0F172A"/>
<path d="M11.4521 10.0197C11.3455 9.43092 11.1434 8.8425 10.8266 8.36521C10.5863 8.00306 10.2485 7.65907 9.79077 7.4695C9.76929 7.4606 9.74771 7.45212 9.72603 7.44404C10.0018 7.04983 10.1888 6.58707 10.2576 6.08619C10.3255 6.11194 10.3842 6.12794 10.4438 6.13788C10.5417 6.15418 10.6422 6.15418 10.7903 6.15418C10.9384 6.15418 11.0389 6.15418 11.1368 6.13788C11.3433 6.10347 11.5381 5.99645 12.1438 5.66356L12.1725 5.64783C13.5547 5.11678 14.3064 6.83344 14.3549 8.35249C14.3937 9.56774 13.4819 9.97035 13.0212 10.0197H11.4521Z" fill="#0F172A"/>
<path d="M9.43313 5.6554C9.43313 6.88251 8.45611 7.87729 7.25091 7.87729C6.0457 7.87729 5.06873 6.88251 5.06873 5.6554C5.06873 4.42828 6.0457 3.43351 7.25091 3.43351C8.45611 3.43351 9.43313 4.42828 9.43313 5.6554Z" fill="#0F172A"/>
<path d="M10.6887 10.8955C10.7261 12.068 9.84646 12.4564 9.40196 12.504H5.09731C4.65281 12.4564 3.77316 12.068 3.8106 10.8955C3.85738 9.42993 4.58263 7.77372 5.91613 8.28608C6.80513 8.7746 6.80045 8.7746 7.24963 8.7746C7.69882 8.7746 7.69414 8.7746 8.58314 8.28608C9.91664 7.77372 10.6419 9.42993 10.6887 10.8955Z" fill="#0F172A"/>
</svg>
